%TF.GenerationSoftware,KiCad,Pcbnew,10.0.4*%
%TF.CreationDate,2026-08-25T10:38:45+02:00*%
%TF.ProjectId,BiosignalGEN_SOIC_Klein_P2,42696f73-6967-46e6-916c-47454e5f534f,rev?*%
%TF.SameCoordinates,Original*%
%TF.FileFunction,Copper,L1,Top*%
%TF.FilePolarity,Positive*%
%FSLAX46Y46*%
G04 Gerber Fmt 4.6, Leading zero omitted, Abs format (unit mm)*
G04 Created by KiCad (PCBNEW 10.0.4) date 2026-08-25 10:38:45*
%MOMM*%
%LPD*%
G01*
G04 APERTURE LIST*
G04 Aperture macros list*
%AMRoundRect*
0 Rectangle with rounded corners*
0 $1 Rounding radius*
0 $2 $3 $4 $5 $6 $7 $8 $9 X,Y pos of 4 corners*
0 Add a 4 corners polygon primitive as box body*
4,1,4,$2,$3,$4,$5,$6,$7,$8,$9,$2,$3,0*
0 Add four circle primitives for the rounded corners*
1,1,$1+$1,$2,$3*
1,1,$1+$1,$4,$5*
1,1,$1+$1,$6,$7*
1,1,$1+$1,$8,$9*
0 Add four rect primitives between the rounded corners*
20,1,$1+$1,$2,$3,$4,$5,0*
20,1,$1+$1,$4,$5,$6,$7,0*
20,1,$1+$1,$6,$7,$8,$9,0*
20,1,$1+$1,$8,$9,$2,$3,0*%
G04 Aperture macros list end*
%TA.AperFunction,SMDPad,CuDef*%
%ADD10RoundRect,0.250000X-0.400000X-0.625000X0.400000X-0.625000X0.400000X0.625000X-0.400000X0.625000X0*%
%TD*%
%TA.AperFunction,SMDPad,CuDef*%
%ADD11RoundRect,0.250000X0.400000X0.625000X-0.400000X0.625000X-0.400000X-0.625000X0.400000X-0.625000X0*%
%TD*%
%TA.AperFunction,SMDPad,CuDef*%
%ADD12RoundRect,0.250000X-0.625000X0.400000X-0.625000X-0.400000X0.625000X-0.400000X0.625000X0.400000X0*%
%TD*%
%TA.AperFunction,SMDPad,CuDef*%
%ADD13RoundRect,0.150000X-0.825000X-0.150000X0.825000X-0.150000X0.825000X0.150000X-0.825000X0.150000X0*%
%TD*%
%TA.AperFunction,SMDPad,CuDef*%
%ADD14RoundRect,0.250000X0.650000X-0.412500X0.650000X0.412500X-0.650000X0.412500X-0.650000X-0.412500X0*%
%TD*%
%TA.AperFunction,SMDPad,CuDef*%
%ADD15RoundRect,0.250000X0.625000X-0.400000X0.625000X0.400000X-0.625000X0.400000X-0.625000X-0.400000X0*%
%TD*%
%TA.AperFunction,SMDPad,CuDef*%
%ADD16RoundRect,0.250000X0.412500X0.650000X-0.412500X0.650000X-0.412500X-0.650000X0.412500X-0.650000X0*%
%TD*%
%TA.AperFunction,ComponentPad*%
%ADD17R,1.700000X1.700000*%
%TD*%
%TA.AperFunction,ComponentPad*%
%ADD18C,1.700000*%
%TD*%
%TA.AperFunction,SMDPad,CuDef*%
%ADD19RoundRect,0.250000X-0.650000X0.412500X-0.650000X-0.412500X0.650000X-0.412500X0.650000X0.412500X0*%
%TD*%
%TA.AperFunction,Conductor*%
%ADD20C,0.600000*%
%TD*%
%TA.AperFunction,Conductor*%
%ADD21C,1.000000*%
%TD*%
G04 APERTURE END LIST*
D10*
%TO.P,R4,1*%
%TO.N,Net-(R3-Pad2)*%
X45085000Y-71120000D03*
%TO.P,R4,2*%
%TO.N,Net-(C1-Pad1)*%
X48185000Y-71120000D03*
%TD*%
%TO.P,R9,1*%
%TO.N,/between stages*%
X58775000Y-39370000D03*
%TO.P,R9,2*%
%TO.N,Net-(R10-Pad2)*%
X61875000Y-39370000D03*
%TD*%
D11*
%TO.P,R10,1*%
%TO.N,Net-(R10-Pad1)*%
X68785000Y-39370000D03*
%TO.P,R10,2*%
%TO.N,Net-(R10-Pad2)*%
X65685000Y-39370000D03*
%TD*%
D12*
%TO.P,R6,1*%
%TO.N,Net-(R6-Pad1)*%
X53975000Y-61595000D03*
%TO.P,R6,2*%
%TO.N,Net-(R5-Pad2)*%
X53975000Y-64695000D03*
%TD*%
D13*
%TO.P,U1,1*%
%TO.N,/between stages*%
X59755000Y-46990000D03*
%TO.P,U1,2,-_2*%
X59755000Y-48260000D03*
%TO.P,U1,3,+_3*%
%TO.N,Net-(U1A-+)*%
X59755000Y-49530000D03*
%TO.P,U1,4,V-_4*%
%TO.N,GND*%
X59755000Y-50800000D03*
%TO.P,U1,5,+_5*%
%TO.N,Net-(U1B-+)*%
X64705000Y-50800000D03*
%TO.P,U1,6,-_6*%
%TO.N,/Lowpass*%
X64705000Y-49530000D03*
%TO.P,U1,7*%
X64705000Y-48260000D03*
%TO.P,U1,8,V+_8*%
%TO.N,/+5V*%
X64705000Y-46990000D03*
%TD*%
D10*
%TO.P,R1,1*%
%TO.N,/Input*%
X26035000Y-71120000D03*
%TO.P,R1,2*%
%TO.N,Net-(R1-Pad2)*%
X29135000Y-71120000D03*
%TD*%
D14*
%TO.P,C9,1*%
%TO.N,/Vref*%
X81915000Y-59347500D03*
%TO.P,C9,2*%
%TO.N,Net-(U1B-+)*%
X81915000Y-56222500D03*
%TD*%
D15*
%TO.P,R7,1*%
%TO.N,Net-(R6-Pad1)*%
X53975000Y-58345000D03*
%TO.P,R7,2*%
%TO.N,Net-(R7-Pad2)*%
X53975000Y-55245000D03*
%TD*%
D10*
%TO.P,R14,1*%
%TO.N,Net-(R14-Pad1)*%
X80365000Y-51435000D03*
%TO.P,R14,2*%
%TO.N,Net-(R13-Pad2)*%
X83465000Y-51435000D03*
%TD*%
D16*
%TO.P,C17,1*%
%TO.N,/+5V*%
X68237500Y-83820000D03*
%TO.P,C17,2*%
%TO.N,GND*%
X65112500Y-83820000D03*
%TD*%
D17*
%TO.P,J5,1,Pin_1_1*%
%TO.N,/+5V*%
X97155000Y-63500000D03*
D18*
%TO.P,J5,2,Pin_2_2*%
%TO.N,GND*%
X97155000Y-66040000D03*
%TO.P,J5,3,Pin_3_3*%
%TO.N,/Vref*%
X97155000Y-68580000D03*
%TO.P,J5,4,Pin_4_4*%
%TO.N,/Lowpass*%
X97155000Y-71120000D03*
%TD*%
D19*
%TO.P,C14,1*%
%TO.N,/Vref_raw*%
X55245000Y-87630000D03*
%TO.P,C14,2*%
%TO.N,GND*%
X55245000Y-90755000D03*
%TD*%
D10*
%TO.P,R11,1*%
%TO.N,Net-(R10-Pad1)*%
X72745000Y-39370000D03*
%TO.P,R11,2*%
%TO.N,Net-(R11-Pad2)*%
X75845000Y-39370000D03*
%TD*%
D17*
%TO.P,J4,1,Pin_1_1*%
%TO.N,/between stages*%
X39370000Y-57150000D03*
%TD*%
D16*
%TO.P,C11,1*%
%TO.N,Net-(U2-Trim{slash}NR)*%
X46012500Y-92710000D03*
%TO.P,C11,2*%
%TO.N,GND*%
X42887500Y-92710000D03*
%TD*%
D14*
%TO.P,C6,1*%
%TO.N,/Vref*%
X67945000Y-58712500D03*
%TO.P,C6,2*%
%TO.N,Net-(U1A-+)*%
X67945000Y-55587500D03*
%TD*%
%TO.P,C2,1*%
%TO.N,Net-(C1-Pad1)*%
X43180000Y-65990000D03*
%TO.P,C2,2*%
%TO.N,/between stages*%
X43180000Y-62865000D03*
%TD*%
D16*
%TO.P,C10,1*%
%TO.N,Net-(C10-Pad1)*%
X82500000Y-45085000D03*
%TO.P,C10,2*%
%TO.N,/Lowpass*%
X79375000Y-45085000D03*
%TD*%
%TO.P,C16,1*%
%TO.N,/+5V*%
X64427500Y-43815000D03*
%TO.P,C16,2*%
%TO.N,GND*%
X61302500Y-43815000D03*
%TD*%
D14*
%TO.P,C1,1*%
%TO.N,Net-(C1-Pad1)*%
X39370000Y-65990000D03*
%TO.P,C1,2*%
%TO.N,/between stages*%
X39370000Y-62865000D03*
%TD*%
D17*
%TO.P,J1,1,Pin_1_1*%
%TO.N,/Input*%
X26035000Y-65405000D03*
D18*
%TO.P,J1,2,Pin_2_2*%
%TO.N,/+5V*%
X26035000Y-62865000D03*
%TO.P,J1,3,Pin_3_3*%
%TO.N,GND*%
X26035000Y-60325000D03*
%TD*%
D14*
%TO.P,C8,1*%
%TO.N,/Vref*%
X78105000Y-59347500D03*
%TO.P,C8,2*%
%TO.N,Net-(U1B-+)*%
X78105000Y-56222500D03*
%TD*%
D15*
%TO.P,R8,1*%
%TO.N,Net-(R7-Pad2)*%
X53975000Y-51995000D03*
%TO.P,R8,2*%
%TO.N,Net-(U1A-+)*%
X53975000Y-48895000D03*
%TD*%
D13*
%TO.P,U3,1*%
%TO.N,/Vref*%
X62930000Y-87630000D03*
%TO.P,U3,2,-_2*%
X62930000Y-88900000D03*
%TO.P,U3,3,+_3*%
%TO.N,/Vref_raw*%
X62930000Y-90170000D03*
%TO.P,U3,4,V-_4*%
%TO.N,GND*%
X62930000Y-91440000D03*
%TO.P,U3,5,+_5*%
%TO.N,/Vref*%
X67880000Y-91440000D03*
%TO.P,U3,6,-_6*%
%TO.N,/not_open_opamp*%
X67880000Y-90170000D03*
%TO.P,U3,7*%
X67880000Y-88900000D03*
%TO.P,U3,8,V+_8*%
%TO.N,/+5V*%
X67880000Y-87630000D03*
%TD*%
D10*
%TO.P,R12,1*%
%TO.N,Net-(R11-Pad2)*%
X79095000Y-39370000D03*
%TO.P,R12,2*%
%TO.N,Net-(C10-Pad1)*%
X82195000Y-39370000D03*
%TD*%
D11*
%TO.P,R13,1*%
%TO.N,Net-(C10-Pad1)*%
X89180000Y-51435000D03*
%TO.P,R13,2*%
%TO.N,Net-(R13-Pad2)*%
X86080000Y-51435000D03*
%TD*%
D14*
%TO.P,C5,1*%
%TO.N,/Vref*%
X63500000Y-58712500D03*
%TO.P,C5,2*%
%TO.N,Net-(U1A-+)*%
X63500000Y-55587500D03*
%TD*%
D19*
%TO.P,C15,1*%
%TO.N,/Vref_raw*%
X50165000Y-87630000D03*
%TO.P,C15,2*%
%TO.N,GND*%
X50165000Y-90755000D03*
%TD*%
D14*
%TO.P,C7,1*%
%TO.N,/Vref*%
X74930000Y-59347500D03*
%TO.P,C7,2*%
%TO.N,Net-(U1B-+)*%
X74930000Y-56222500D03*
%TD*%
D13*
%TO.P,U2,1,DNC_1*%
%TO.N,unconnected-(U2-DNC-Pad1)*%
X40705000Y-84455000D03*
%TO.P,U2,2,Vin_2*%
%TO.N,/+5V*%
X40705000Y-85725000D03*
%TO.P,U2,3,Temp_3*%
%TO.N,unconnected-(U2-Temp-Pad3)*%
X40705000Y-86995000D03*
%TO.P,U2,4,GND_4*%
%TO.N,GND*%
X40705000Y-88265000D03*
%TO.P,U2,5,Trim/NR_5*%
%TO.N,Net-(U2-Trim{slash}NR)*%
X45655000Y-88265000D03*
%TO.P,U2,6,Vout_6*%
%TO.N,/Vref_raw*%
X45655000Y-86995000D03*
%TO.P,U2,7,NC_7*%
%TO.N,unconnected-(U2-NC-Pad7)*%
X45655000Y-85725000D03*
%TO.P,U2,8,DNC_8*%
%TO.N,unconnected-(U2-DNC-Pad8)*%
X45655000Y-84455000D03*
%TD*%
D10*
%TO.P,R3,1*%
%TO.N,Net-(R2-Pad1)*%
X38735000Y-71120000D03*
%TO.P,R3,2*%
%TO.N,Net-(R3-Pad2)*%
X41835000Y-71120000D03*
%TD*%
D11*
%TO.P,R15,1*%
%TO.N,Net-(R14-Pad1)*%
X77750000Y-51435000D03*
%TO.P,R15,2*%
%TO.N,Net-(U1B-+)*%
X74650000Y-51435000D03*
%TD*%
D16*
%TO.P,C13,1*%
%TO.N,/+5V*%
X36487500Y-83820000D03*
%TO.P,C13,2*%
%TO.N,GND*%
X33362500Y-83820000D03*
%TD*%
D14*
%TO.P,C4,1*%
%TO.N,/Vref*%
X59055000Y-58712500D03*
%TO.P,C4,2*%
%TO.N,Net-(U1A-+)*%
X59055000Y-55587500D03*
%TD*%
%TO.P,C3,1*%
%TO.N,Net-(C1-Pad1)*%
X46990000Y-65990000D03*
%TO.P,C3,2*%
%TO.N,/between stages*%
X46990000Y-62865000D03*
%TD*%
D16*
%TO.P,C12,1*%
%TO.N,/+5V*%
X36487500Y-87630000D03*
%TO.P,C12,2*%
%TO.N,GND*%
X33362500Y-87630000D03*
%TD*%
D15*
%TO.P,R5,1*%
%TO.N,Net-(C1-Pad1)*%
X53975000Y-71045000D03*
%TO.P,R5,2*%
%TO.N,Net-(R5-Pad2)*%
X53975000Y-67945000D03*
%TD*%
D11*
%TO.P,R2,1*%
%TO.N,Net-(R2-Pad1)*%
X35485000Y-71120000D03*
%TO.P,R2,2*%
%TO.N,Net-(R1-Pad2)*%
X32385000Y-71120000D03*
%TD*%
D17*
%TO.P,J11,1,Pin_1_1*%
%TO.N,/Vref_raw*%
X52705000Y-81915000D03*
%TD*%
%TO.N,Net-(R3-Pad2)*%
D20*
X41835000Y-71120000D02*
X45085000Y-71120000D01*
%TO.N,Net-(C1-Pad1)*%
X48185000Y-71120000D02*
X48185000Y-67185000D01*
X53900000Y-71120000D02*
X53975000Y-71045000D01*
X39370000Y-65990000D02*
X43180000Y-65990000D01*
X48185000Y-67185000D02*
X46990000Y-65990000D01*
X43180000Y-65990000D02*
X46990000Y-65990000D01*
X48185000Y-71120000D02*
X53900000Y-71120000D01*
%TO.N,/between stages*%
X46990000Y-49530000D02*
X50510000Y-46010000D01*
X46990000Y-62865000D02*
X46990000Y-49530000D01*
X58775000Y-46010000D02*
X59755000Y-46990000D01*
X58775000Y-39370000D02*
X58775000Y-46010000D01*
X59755000Y-48260000D02*
X59755000Y-46990000D01*
X50510000Y-46010000D02*
X58775000Y-46010000D01*
X43180000Y-62865000D02*
X39370000Y-62865000D01*
X39370000Y-62865000D02*
X39370000Y-57150000D01*
X46990000Y-62865000D02*
X43180000Y-62865000D01*
%TO.N,Net-(R10-Pad2)*%
X65685000Y-39370000D02*
X61875000Y-39370000D01*
%TO.N,Net-(R10-Pad1)*%
X72745000Y-39370000D02*
X68785000Y-39370000D01*
%TO.N,Net-(R6-Pad1)*%
X53975000Y-61595000D02*
X53975000Y-58345000D01*
%TO.N,Net-(R5-Pad2)*%
X53975000Y-67945000D02*
X53975000Y-64695000D01*
%TO.N,Net-(U1A-+)*%
X56515000Y-48895000D02*
X57150000Y-49530000D01*
X57150000Y-49530000D02*
X59755000Y-49530000D01*
X57150000Y-53682500D02*
X59055000Y-55587500D01*
X63500000Y-55587500D02*
X67945000Y-55587500D01*
X53975000Y-48895000D02*
X56515000Y-48895000D01*
X57150000Y-49530000D02*
X57150000Y-53682500D01*
X59055000Y-55587500D02*
X63500000Y-55587500D01*
%TO.N,Net-(U1B-+)*%
X74650000Y-51435000D02*
X72390000Y-51435000D01*
X72390000Y-51435000D02*
X71755000Y-50800000D01*
X74930000Y-51715000D02*
X74650000Y-51435000D01*
X74930000Y-56222500D02*
X74930000Y-51715000D01*
X78105000Y-56222500D02*
X81915000Y-56222500D01*
X74930000Y-56222500D02*
X78105000Y-56222500D01*
X71755000Y-50800000D02*
X64705000Y-50800000D01*
%TO.N,/Lowpass*%
X79375000Y-45085000D02*
X76835000Y-47625000D01*
X81815000Y-50368148D02*
X79706852Y-48260000D01*
X83615000Y-57580000D02*
X83615000Y-54101852D01*
X97155000Y-71120000D02*
X83615000Y-57580000D01*
X83615000Y-54101852D02*
X81815000Y-52301852D01*
X64705000Y-49530000D02*
X64705000Y-48260000D01*
X74295000Y-49530000D02*
X64705000Y-49530000D01*
X79706852Y-48260000D02*
X76835000Y-48260000D01*
X75565000Y-48260000D02*
X74295000Y-49530000D01*
X76835000Y-47625000D02*
X76835000Y-48260000D01*
X76835000Y-48260000D02*
X75565000Y-48260000D01*
X81815000Y-52301852D02*
X81815000Y-50368148D01*
%TO.N,/+5V*%
D21*
X22225000Y-83820000D02*
X34925000Y-96520000D01*
X69215000Y-83820000D02*
X68237500Y-83820000D01*
X73660000Y-88265000D02*
X96520000Y-88265000D01*
D20*
X87730000Y-54075000D02*
X97155000Y-63500000D01*
D21*
X73660000Y-94615000D02*
X73660000Y-88265000D01*
X31407500Y-78740000D02*
X36487500Y-83820000D01*
D20*
X38392500Y-85725000D02*
X36487500Y-87630000D01*
X80837500Y-46176852D02*
X84420648Y-49760000D01*
D21*
X73660000Y-88265000D02*
X69215000Y-83820000D01*
D20*
X68237500Y-83820000D02*
X68237500Y-87272500D01*
X36487500Y-83820000D02*
X36487500Y-87630000D01*
D21*
X34925000Y-96520000D02*
X71755000Y-96520000D01*
X22225000Y-65472919D02*
X22225000Y-78740000D01*
D20*
X40705000Y-85725000D02*
X38392500Y-85725000D01*
D21*
X97790000Y-63500000D02*
X97155000Y-63500000D01*
D20*
X68237500Y-87272500D02*
X67880000Y-87630000D01*
D21*
X26035000Y-62865000D02*
X24832919Y-62865000D01*
X22225000Y-78740000D02*
X22225000Y-83820000D01*
X96520000Y-88265000D02*
X102235000Y-82550000D01*
D20*
X64427500Y-43815000D02*
X64857500Y-43385000D01*
X80229352Y-43385000D02*
X80837500Y-43993148D01*
D21*
X24832919Y-62865000D02*
X22225000Y-65472919D01*
X102235000Y-82550000D02*
X102235000Y-67945000D01*
D20*
X38392500Y-85725000D02*
X36487500Y-83820000D01*
X87730000Y-50368148D02*
X87730000Y-54075000D01*
X87121852Y-49760000D02*
X87730000Y-50368148D01*
X64427500Y-46712500D02*
X64705000Y-46990000D01*
D21*
X102235000Y-67945000D02*
X97790000Y-63500000D01*
X22225000Y-78740000D02*
X31407500Y-78740000D01*
D20*
X84420648Y-49760000D02*
X87121852Y-49760000D01*
X64427500Y-43815000D02*
X64427500Y-46712500D01*
X64857500Y-43385000D02*
X80229352Y-43385000D01*
X80837500Y-43993148D02*
X80837500Y-46176852D01*
D21*
X71755000Y-96520000D02*
X73660000Y-94615000D01*
%TO.N,/Input*%
X26035000Y-65405000D02*
X26035000Y-71120000D01*
%TO.N,Net-(R1-Pad2)*%
D20*
X29135000Y-71120000D02*
X32385000Y-71120000D01*
%TO.N,/Vref*%
D21*
X62930000Y-87630000D02*
X62930000Y-80645000D01*
X62930000Y-74295000D02*
X62930000Y-64835000D01*
X62930000Y-64770000D02*
X67945000Y-59755000D01*
X78105000Y-63157500D02*
X81915000Y-59347500D01*
X62930000Y-87630000D02*
X62930000Y-88265000D01*
X62930000Y-88265000D02*
X62930000Y-88870000D01*
X63500000Y-62995000D02*
X63500000Y-58712500D01*
X62930000Y-64770000D02*
X62930000Y-63565000D01*
X59055000Y-60960000D02*
X59055000Y-58712500D01*
X62930000Y-64835000D02*
X59055000Y-60960000D01*
X99005000Y-71886296D02*
X94056296Y-76835000D01*
X67945000Y-59755000D02*
X67945000Y-58712500D01*
X78105000Y-62522500D02*
X74930000Y-59347500D01*
X65405000Y-90300502D02*
X66574498Y-91470000D01*
X62930000Y-88265000D02*
X63630502Y-88265000D01*
X78105000Y-64135000D02*
X78105000Y-63157500D01*
X62930000Y-74295000D02*
X73090000Y-64135000D01*
X62930000Y-80645000D02*
X62930000Y-74295000D01*
X65405000Y-90039498D02*
X65405000Y-90300502D01*
X97231296Y-68580000D02*
X99005000Y-70353704D01*
X94056296Y-76835000D02*
X66740000Y-76835000D01*
X73090000Y-64135000D02*
X78105000Y-64135000D01*
X78105000Y-63157500D02*
X78105000Y-59347500D01*
X62930000Y-63565000D02*
X63500000Y-62995000D01*
X63630502Y-88265000D02*
X65405000Y-90039498D01*
X97155000Y-68580000D02*
X97231296Y-68580000D01*
X62930000Y-64835000D02*
X62930000Y-64770000D01*
X66740000Y-76835000D02*
X62930000Y-80645000D01*
X78105000Y-63157500D02*
X78105000Y-62522500D01*
X66574498Y-91470000D02*
X67880000Y-91470000D01*
X99005000Y-70353704D02*
X99005000Y-71886296D01*
%TO.N,Net-(R7-Pad2)*%
D20*
X53975000Y-55245000D02*
X53975000Y-51995000D01*
%TO.N,Net-(R14-Pad1)*%
X77750000Y-51435000D02*
X80365000Y-51435000D01*
%TO.N,Net-(R13-Pad2)*%
X83465000Y-51435000D02*
X86080000Y-51435000D01*
%TO.N,/Vref_raw*%
X49530000Y-86995000D02*
X50165000Y-87630000D01*
X55245000Y-87630000D02*
X57785000Y-90170000D01*
X52705000Y-83820000D02*
X49530000Y-86995000D01*
X57785000Y-90170000D02*
X62930000Y-90170000D01*
X45655000Y-86995000D02*
X49530000Y-86995000D01*
X52705000Y-81915000D02*
X52705000Y-83820000D01*
X50165000Y-87630000D02*
X55245000Y-87630000D01*
%TO.N,Net-(R11-Pad2)*%
X79095000Y-39370000D02*
X75845000Y-39370000D01*
%TO.N,Net-(U2-Trim{slash}NR)*%
X45655000Y-92352500D02*
X46012500Y-92710000D01*
X45655000Y-88265000D02*
X45655000Y-92352500D01*
%TO.N,Net-(C10-Pad1)*%
X89180000Y-51435000D02*
X89180000Y-47905000D01*
X82500000Y-45085000D02*
X82500000Y-39675000D01*
X82500000Y-39675000D02*
X82195000Y-39370000D01*
X89180000Y-47905000D02*
X86360000Y-45085000D01*
X86360000Y-45085000D02*
X82500000Y-45085000D01*
%TO.N,/not_open_opamp*%
X67880000Y-90170000D02*
X67880000Y-88900000D01*
%TO.N,Net-(R2-Pad1)*%
X35485000Y-71120000D02*
X38735000Y-71120000D01*
%TD*%
%TA.AperFunction,Conductor*%
%TO.N,GND*%
G36*
X104942539Y-37465185D02*
G01*
X104988294Y-37517989D01*
X104999500Y-37569500D01*
X104999500Y-97320500D01*
X104979815Y-97387539D01*
X104927011Y-97433294D01*
X104875500Y-97444500D01*
X72544784Y-97444500D01*
X72523540Y-97438262D01*
X72501453Y-97436683D01*
X72490667Y-97428609D01*
X72477745Y-97424815D01*
X72463247Y-97408083D01*
X72445519Y-97394813D01*
X72440810Y-97382190D01*
X72431990Y-97372011D01*
X72428838Y-97350095D01*
X72421100Y-97329349D01*
X72423963Y-97316185D01*
X72422046Y-97302853D01*
X72431243Y-97282712D01*
X72435950Y-97261076D01*
X72449221Y-97243346D01*
X72451071Y-97239297D01*
X72457101Y-97232821D01*
X72457102Y-97232819D01*
X72532139Y-97157782D01*
X72532141Y-97157778D01*
X74297778Y-95392141D01*
X74297782Y-95392139D01*
X74437139Y-95252782D01*
X74546632Y-95088914D01*
X74622051Y-94906835D01*
X74660500Y-94713541D01*
X74660500Y-89389500D01*
X74680185Y-89322461D01*
X74732989Y-89276706D01*
X74784500Y-89265500D01*
X96618542Y-89265500D01*
X96650046Y-89259233D01*
X96715188Y-89246275D01*
X96811836Y-89227051D01*
X96865165Y-89204961D01*
X96993914Y-89151632D01*
X97157782Y-89042139D01*
X97297139Y-88902782D01*
X97297139Y-88902780D01*
X97307347Y-88892573D01*
X97307348Y-88892570D01*
X103012140Y-83187781D01*
X103121632Y-83023914D01*
X103197052Y-82841835D01*
X103235501Y-82648540D01*
X103235501Y-82451459D01*
X103235501Y-82446349D01*
X103235500Y-82446323D01*
X103235500Y-67846456D01*
X103197052Y-67653170D01*
X103197051Y-67653169D01*
X103197051Y-67653165D01*
X103154276Y-67549896D01*
X103121635Y-67471092D01*
X103121628Y-67471079D01*
X103012140Y-67307219D01*
X102943195Y-67238274D01*
X102872782Y-67167861D01*
X102872781Y-67167860D01*
X98567140Y-62862220D01*
X98567139Y-62862218D01*
X98541814Y-62836893D01*
X98508332Y-62775572D01*
X98508332Y-62775567D01*
X98505499Y-62749216D01*
X98505499Y-62602129D01*
X98505498Y-62602123D01*
X98504867Y-62596256D01*
X98499091Y-62542517D01*
X98494130Y-62529217D01*
X98448797Y-62407671D01*
X98448793Y-62407664D01*
X98362547Y-62292455D01*
X98362544Y-62292452D01*
X98247335Y-62206206D01*
X98247328Y-62206202D01*
X98112482Y-62155908D01*
X98112483Y-62155908D01*
X98052883Y-62149501D01*
X98052881Y-62149500D01*
X98052873Y-62149500D01*
X98052865Y-62149500D01*
X96987940Y-62149500D01*
X96920901Y-62129815D01*
X96900259Y-62113181D01*
X88566819Y-53779741D01*
X88533334Y-53718418D01*
X88530500Y-53692060D01*
X88530500Y-52927433D01*
X88550185Y-52860394D01*
X88602989Y-52814639D01*
X88667102Y-52804075D01*
X88729991Y-52810500D01*
X89630008Y-52810499D01*
X89630016Y-52810498D01*
X89630019Y-52810498D01*
X89692895Y-52804075D01*
X89732797Y-52799999D01*
X89899334Y-52744814D01*
X90048656Y-52652712D01*
X90172712Y-52528656D01*
X90264814Y-52379334D01*
X90319999Y-52212797D01*
X90330500Y-52110009D01*
X90330499Y-50759992D01*
X90319999Y-50657203D01*
X90264814Y-50490666D01*
X90172712Y-50341344D01*
X90048656Y-50217288D01*
X90048655Y-50217287D01*
X90039402Y-50211580D01*
X89992678Y-50159632D01*
X89980500Y-50106042D01*
X89980500Y-47826155D01*
X89980499Y-47826153D01*
X89957024Y-47708137D01*
X89949737Y-47671503D01*
X89930475Y-47625000D01*
X89889397Y-47525827D01*
X89889390Y-47525814D01*
X89801790Y-47394712D01*
X89790030Y-47382952D01*
X89690289Y-47283211D01*
X88292578Y-45885500D01*
X86870292Y-44463213D01*
X86870288Y-44463210D01*
X86739185Y-44375609D01*
X86739172Y-44375602D01*
X86593501Y-44315264D01*
X86593489Y-44315261D01*
X86438845Y-44284500D01*
X86438842Y-44284500D01*
X83742801Y-44284500D01*
X83675762Y-44264815D01*
X83630007Y-44212011D01*
X83625095Y-44199504D01*
X83624168Y-44196706D01*
X83597314Y-44115666D01*
X83505212Y-43966344D01*
X83381156Y-43842288D01*
X83376853Y-43839634D01*
X83359400Y-43828868D01*
X83312677Y-43776918D01*
X83300500Y-43723331D01*
X83300500Y-40271916D01*
X83306794Y-40232912D01*
X83318346Y-40198051D01*
X83334999Y-40147797D01*
X83345500Y-40045009D01*
X83345499Y-38694992D01*
X83334999Y-38592203D01*
X83279814Y-38425666D01*
X83187712Y-38276344D01*
X83063656Y-38152288D01*
X82914334Y-38060186D01*
X82747797Y-38005001D01*
X82747795Y-38005000D01*
X82645010Y-37994500D01*
X81744998Y-37994500D01*
X81744980Y-37994501D01*
X81642203Y-38005000D01*
X81642200Y-38005001D01*
X81475668Y-38060185D01*
X81475663Y-38060187D01*
X81326342Y-38152289D01*
X81202289Y-38276342D01*
X81110187Y-38425663D01*
X81110186Y-38425666D01*
X81055001Y-38592203D01*
X81055001Y-38592204D01*
X81055000Y-38592204D01*
X81044500Y-38694983D01*
X81044500Y-40045001D01*
X81044501Y-40045018D01*
X81055000Y-40147796D01*
X81055001Y-40147799D01*
X81096130Y-40271916D01*
X81110186Y-40314334D01*
X81202288Y-40463656D01*
X81326344Y-40587712D01*
X81475666Y-40679814D01*
X81614505Y-40725820D01*
X81671949Y-40765593D01*
X81698772Y-40830108D01*
X81699500Y-40843526D01*
X81699500Y-43433586D01*
X81679815Y-43500625D01*
X81627011Y-43546380D01*
X81557853Y-43556324D01*
X81494297Y-43527299D01*
X81484884Y-43518231D01*
X81477998Y-43510859D01*
X81459289Y-43482859D01*
X81347789Y-43371359D01*
X81091413Y-43114983D01*
X80739644Y-42763213D01*
X80739640Y-42763210D01*
X80608537Y-42675609D01*
X80608524Y-42675602D01*
X80462853Y-42615264D01*
X80462841Y-42615261D01*
X80308197Y-42584500D01*
X80308194Y-42584500D01*
X65363621Y-42584500D01*
X65298525Y-42566039D01*
X65159340Y-42480189D01*
X65159335Y-42480187D01*
X65159334Y-42480186D01*
X64992797Y-42425001D01*
X64992795Y-42425000D01*
X64890010Y-42414500D01*
X63964998Y-42414500D01*
X63964980Y-42414501D01*
X63862203Y-42425000D01*
X63862200Y-42425001D01*
X63695668Y-42480185D01*
X63695663Y-42480187D01*
X63546342Y-42572289D01*
X63422289Y-42696342D01*
X63330187Y-42845663D01*
X63330185Y-42845668D01*
X63330115Y-42845880D01*
X63275001Y-43012203D01*
X63275001Y-43012204D01*
X63275000Y-43012204D01*
X63264500Y-43114983D01*
X63264500Y-44515001D01*
X63264501Y-44515018D01*
X63275000Y-44617796D01*
X63275001Y-44617799D01*
X63330115Y-44784119D01*
X63330186Y-44784334D01*
X63422288Y-44933656D01*
X63546344Y-45057712D01*
X63568094Y-45071127D01*
X63614820Y-45123073D01*
X63627000Y-45176667D01*
X63627000Y-46163152D01*
X63607315Y-46230191D01*
X63566121Y-46269884D01*
X63478138Y-46321916D01*
X63478129Y-46321923D01*
X63361923Y-46438129D01*
X63361917Y-46438137D01*
X63278255Y-46579603D01*
X63278254Y-46579606D01*
X63232402Y-46737426D01*
X63232401Y-46737432D01*
X63229500Y-46774298D01*
X63229500Y-47205701D01*
X63232401Y-47242567D01*
X63232402Y-47242573D01*
X63278254Y-47400393D01*
X63278255Y-47400396D01*
X63361917Y-47541862D01*
X63366702Y-47548031D01*
X63364256Y-47549927D01*
X63390857Y-47598642D01*
X63385873Y-47668334D01*
X63365069Y-47700703D01*
X63366702Y-47701969D01*
X63361917Y-47708137D01*
X63278255Y-47849603D01*
X63278254Y-47849606D01*
X63232402Y-48007426D01*
X63232401Y-48007432D01*
X63229500Y-48044298D01*
X63229500Y-48475701D01*
X63232401Y-48512567D01*
X63232402Y-48512573D01*
X63278254Y-48670393D01*
X63278255Y-48670396D01*
X63361917Y-48811862D01*
X63366702Y-48818031D01*
X63364256Y-48819927D01*
X63390857Y-48868642D01*
X63385873Y-48938334D01*
X63365069Y-48970703D01*
X63366702Y-48971969D01*
X63361917Y-48978137D01*
X63278255Y-49119603D01*
X63278254Y-49119606D01*
X63232402Y-49277426D01*
X63232401Y-49277432D01*
X63229500Y-49314298D01*
X63229500Y-49745701D01*
X63232401Y-49782567D01*
X63232402Y-49782573D01*
X63278254Y-49940393D01*
X63278255Y-49940396D01*
X63278256Y-49940398D01*
X63303850Y-49983676D01*
X63361917Y-50081862D01*
X63366702Y-50088031D01*
X63364256Y-50089927D01*
X63390857Y-50138642D01*
X63385873Y-50208334D01*
X63365069Y-50240703D01*
X63366702Y-50241969D01*
X63361917Y-50248137D01*
X63278255Y-50389603D01*
X63278254Y-50389606D01*
X63232402Y-50547426D01*
X63232401Y-50547432D01*
X63229500Y-50584298D01*
X63229500Y-51015701D01*
X63232401Y-51052567D01*
X63232402Y-51052573D01*
X63278254Y-51210393D01*
X63278255Y-51210396D01*
X63361917Y-51351862D01*
X63361923Y-51351870D01*
X63478129Y-51468076D01*
X63478133Y-51468079D01*
X63478135Y-51468081D01*
X63619602Y-51551744D01*
X63661224Y-51563836D01*
X63777426Y-51597597D01*
X63777429Y-51597597D01*
X63777431Y-51597598D01*
X63814306Y-51600500D01*
X64626158Y-51600500D01*
X71372060Y-51600500D01*
X71439099Y-51620185D01*
X71459741Y-51636819D01*
X71879707Y-52056786D01*
X71879711Y-52056789D01*
X72010814Y-52144390D01*
X72010818Y-52144392D01*
X72010821Y-52144394D01*
X72156503Y-52204738D01*
X72311153Y-52235499D01*
X72311157Y-52235500D01*
X72311158Y-52235500D01*
X72468843Y-52235500D01*
X73427983Y-52235500D01*
X73495022Y-52255185D01*
X73540777Y-52307989D01*
X73545686Y-52320489D01*
X73565186Y-52379334D01*
X73657288Y-52528656D01*
X73781344Y-52652712D01*
X73930666Y-52744814D01*
X74044504Y-52782536D01*
X74101949Y-52822309D01*
X74128772Y-52886825D01*
X74129500Y-52900242D01*
X74129500Y-54979699D01*
X74109815Y-55046738D01*
X74057011Y-55092493D01*
X74044507Y-55097403D01*
X74030501Y-55102045D01*
X73960668Y-55125185D01*
X73960663Y-55125187D01*
X73811342Y-55217289D01*
X73687289Y-55341342D01*
X73595187Y-55490663D01*
X73595186Y-55490666D01*
X73540001Y-55657203D01*
X73540001Y-55657204D01*
X73540000Y-55657204D01*
X73529500Y-55759983D01*
X73529500Y-56685001D01*
X73529501Y-56685019D01*
X73540000Y-56787796D01*
X73540001Y-56787799D01*
X73595185Y-56954331D01*
X73595186Y-56954334D01*
X73687288Y-57103656D01*
X73811344Y-57227712D01*
X73960666Y-57319814D01*
X74127203Y-57374999D01*
X74229991Y-57385500D01*
X75630008Y-57385499D01*
X75732797Y-57374999D01*
X75899334Y-57319814D01*
X76048656Y-57227712D01*
X76172712Y-57103656D01*
X76178337Y-57094534D01*
X76186130Y-57081903D01*
X76238078Y-57035178D01*
X76291668Y-57023000D01*
X76743332Y-57023000D01*
X76810371Y-57042685D01*
X76848870Y-57081903D01*
X76862285Y-57103652D01*
X76862288Y-57103656D01*
X76986344Y-57227712D01*
X77135666Y-57319814D01*
X77302203Y-57374999D01*
X77404991Y-57385500D01*
X78805008Y-57385499D01*
X78907797Y-57374999D01*
X79074334Y-57319814D01*
X79223656Y-57227712D01*
X79347712Y-57103656D01*
X79353337Y-57094534D01*
X79361130Y-57081903D01*
X79413078Y-57035178D01*
X79466668Y-57023000D01*
X80553332Y-57023000D01*
X80620371Y-57042685D01*
X80658870Y-57081903D01*
X80672285Y-57103652D01*
X80672288Y-57103656D01*
X80796344Y-57227712D01*
X80945666Y-57319814D01*
X81112203Y-57374999D01*
X81214991Y-57385500D01*
X82615008Y-57385499D01*
X82677899Y-57379074D01*
X82746590Y-57391843D01*
X82797475Y-57439723D01*
X82814500Y-57502432D01*
X82814500Y-57658846D01*
X82845261Y-57813489D01*
X82845264Y-57813501D01*
X82905602Y-57959172D01*
X82905609Y-57959185D01*
X82960847Y-58041854D01*
X82981725Y-58108532D01*
X82963240Y-58175912D01*
X82911262Y-58222602D01*
X82842292Y-58233778D01*
X82818744Y-58228451D01*
X82717797Y-58195001D01*
X82717795Y-58195000D01*
X82615010Y-58184500D01*
X81214998Y-58184500D01*
X81214981Y-58184501D01*
X81112203Y-58195000D01*
X81112200Y-58195001D01*
X80945668Y-58250185D01*
X80945663Y-58250187D01*
X80796342Y-58342289D01*
X80672289Y-58466342D01*
X80580187Y-58615663D01*
X80580185Y-58615668D01*
X80577970Y-58622352D01*
X80525001Y-58782203D01*
X80525001Y-58782204D01*
X80525000Y-58782204D01*
X80514500Y-58884983D01*
X80514500Y-59281716D01*
X80494815Y-59348755D01*
X80478181Y-59369397D01*
X79647004Y-60200573D01*
X79585681Y-60234058D01*
X79515989Y-60229074D01*
X79460056Y-60187202D01*
X79435639Y-60121738D01*
X79441615Y-60073896D01*
X79494999Y-59912797D01*
X79505500Y-59810009D01*
X79505499Y-58884992D01*
X79494999Y-58782203D01*
X79439814Y-58615666D01*
X79347712Y-58466344D01*
X79223656Y-58342288D01*
X79074334Y-58250186D01*
X78907797Y-58195001D01*
X78907795Y-58195000D01*
X78805010Y-58184500D01*
X77404998Y-58184500D01*
X77404981Y-58184501D01*
X77302203Y-58195000D01*
X77302200Y-58195001D01*
X77135668Y-58250185D01*
X77135663Y-58250187D01*
X76986342Y-58342289D01*
X76862289Y-58466342D01*
X76770187Y-58615663D01*
X76770185Y-58615668D01*
X76767970Y-58622352D01*
X76715001Y-58782203D01*
X76715001Y-58782204D01*
X76715000Y-58782204D01*
X76704500Y-58884983D01*
X76704500Y-59407718D01*
X76698261Y-59428963D01*
X76696682Y-59451052D01*
X76688609Y-59461835D01*
X76684815Y-59474757D01*
X76668081Y-59489256D01*
X76654810Y-59506985D01*
X76642189Y-59511692D01*
X76632011Y-59520512D01*
X76610093Y-59523663D01*
X76589346Y-59531402D01*
X76576185Y-59528539D01*
X76562853Y-59530456D01*
X76542709Y-59521256D01*
X76521073Y-59516550D01*
X76503347Y-59503281D01*
X76499297Y-59501431D01*
X76492819Y-59495399D01*
X76366818Y-59369398D01*
X76333333Y-59308075D01*
X76330499Y-59281717D01*
X76330499Y-58884998D01*
X76330498Y-58884981D01*
X76319999Y-58782203D01*
X76319998Y-58782200D01*
X76264814Y-58615666D01*
X76172712Y-58466344D01*
X76048656Y-58342288D01*
X75899334Y-58250186D01*
X75732797Y-58195001D01*
X75732795Y-58195000D01*
X75630010Y-58184500D01*
X74229998Y-58184500D01*
X74229981Y-58184501D01*
X74127203Y-58195000D01*
X74127200Y-58195001D01*
X73960668Y-58250185D01*
X73960663Y-58250187D01*
X73811342Y-58342289D01*
X73687289Y-58466342D01*
X73595187Y-58615663D01*
X73595185Y-58615668D01*
X73592970Y-58622352D01*
X73540001Y-58782203D01*
X73540001Y-58782204D01*
X73540000Y-58782204D01*
X73529500Y-58884983D01*
X73529500Y-59810001D01*
X73529501Y-59810019D01*
X73540000Y-59912796D01*
X73540001Y-59912799D01*
X73584416Y-60046832D01*
X73595186Y-60079334D01*
X73687288Y-60228656D01*
X73811344Y-60352712D01*
X73960666Y-60444814D01*
X74127203Y-60499999D01*
X74229991Y-60510500D01*
X74626717Y-60510499D01*
X74693756Y-60530183D01*
X74714398Y-60546818D01*
X77068181Y-62900601D01*
X77082884Y-62927528D01*
X77099477Y-62953347D01*
X77100368Y-62959547D01*
X77101666Y-62961924D01*
X77104500Y-62988282D01*
X77104500Y-63010500D01*
X77084815Y-63077539D01*
X77032011Y-63123294D01*
X76980500Y-63134500D01*
X72991455Y-63134500D01*
X72897615Y-63153166D01*
X72897605Y-63153168D01*
X72894812Y-63153724D01*
X72798164Y-63172949D01*
X72778141Y-63181243D01*
X72769508Y-63184818D01*
X72769503Y-63184820D01*
X72616088Y-63248366D01*
X72616079Y-63248371D01*
X72452219Y-63357859D01*
X72382540Y-63427538D01*
X72312861Y-63497218D01*
X64142181Y-71667898D01*
X64080858Y-71701383D01*
X64011166Y-71696399D01*
X63955233Y-71654527D01*
X63930816Y-71589063D01*
X63930500Y-71580217D01*
X63930500Y-65235781D01*
X63950185Y-65168742D01*
X63966814Y-65148105D01*
X68582778Y-60532141D01*
X68582782Y-60532139D01*
X68722139Y-60392782D01*
X68831632Y-60228914D01*
X68893590Y-60079334D01*
X68907051Y-60046836D01*
X68912789Y-60017993D01*
X68945498Y-59853550D01*
X68945497Y-59853550D01*
X68945500Y-59853540D01*
X68945500Y-59853529D01*
X68946078Y-59847663D01*
X68972234Y-59782874D01*
X69004384Y-59754270D01*
X69063656Y-59717712D01*
X69187712Y-59593656D01*
X69279814Y-59444334D01*
X69334999Y-59277797D01*
X69345500Y-59175009D01*
X69345499Y-58249992D01*
X69344716Y-58242331D01*
X69334999Y-58147203D01*
X69334998Y-58147200D01*
X69321837Y-58107482D01*
X69279814Y-57980666D01*
X69187712Y-57831344D01*
X69063656Y-57707288D01*
X68914334Y-57615186D01*
X68747797Y-57560001D01*
X68747795Y-57560000D01*
X68645010Y-57549500D01*
X67244998Y-57549500D01*
X67244981Y-57549501D01*
X67142203Y-57560000D01*
X67142200Y-57560001D01*
X66975668Y-57615185D01*
X66975663Y-57615187D01*
X66826342Y-57707289D01*
X66702289Y-57831342D01*
X66610187Y-57980663D01*
X66610186Y-57980666D01*
X66555001Y-58147203D01*
X66555001Y-58147204D01*
X66555000Y-58147204D01*
X66544500Y-58249983D01*
X66544500Y-59175001D01*
X66544501Y-59175019D01*
X66555000Y-59277796D01*
X66555001Y-59277799D01*
X66610185Y-59444331D01*
X66610190Y-59444342D01*
X66646671Y-59503486D01*
X66665112Y-59570878D01*
X66644190Y-59637542D01*
X66628814Y-59656264D01*
X64712181Y-61572898D01*
X64650858Y-61606383D01*
X64581166Y-61601399D01*
X64525233Y-61559527D01*
X64500816Y-61494063D01*
X64500500Y-61485217D01*
X64500500Y-59859797D01*
X64520185Y-59792758D01*
X64559403Y-59754258D01*
X64618656Y-59717712D01*
X64742712Y-59593656D01*
X64834814Y-59444334D01*
X64889999Y-59277797D01*
X64900500Y-59175009D01*
X64900499Y-58249992D01*
X64899716Y-58242331D01*
X64889999Y-58147203D01*
X64889998Y-58147200D01*
X64876837Y-58107482D01*
X64834814Y-57980666D01*
X64742712Y-57831344D01*
X64618656Y-57707288D01*
X64469334Y-57615186D01*
X64302797Y-57560001D01*
X64302795Y-57560000D01*
X64200010Y-57549500D01*
X62799998Y-57549500D01*
X62799981Y-57549501D01*
X62697203Y-57560000D01*
X62697200Y-57560001D01*
X62530668Y-57615185D01*
X62530663Y-57615187D01*
X62381342Y-57707289D01*
X62257289Y-57831342D01*
X62165187Y-57980663D01*
X62165186Y-57980666D01*
X62110001Y-58147203D01*
X62110001Y-58147204D01*
X62110000Y-58147204D01*
X62099500Y-58249983D01*
X62099500Y-59175001D01*
X62099501Y-59175019D01*
X62110000Y-59277796D01*
X62110001Y-59277799D01*
X62165185Y-59444331D01*
X62165187Y-59444336D01*
X62183951Y-59474757D01*
X62257288Y-59593656D01*
X62381344Y-59717712D01*
X62440596Y-59754258D01*
X62487321Y-59806204D01*
X62499500Y-59859797D01*
X62499500Y-62529217D01*
X62490855Y-62558657D01*
X62484332Y-62588644D01*
X62480577Y-62593659D01*
X62479815Y-62596256D01*
X62463181Y-62616898D01*
X62382681Y-62697398D01*
X62321358Y-62730883D01*
X62251666Y-62725899D01*
X62207319Y-62697398D01*
X60091819Y-60581898D01*
X60058334Y-60520575D01*
X60055500Y-60494217D01*
X60055500Y-59859797D01*
X60075185Y-59792758D01*
X60114403Y-59754258D01*
X60173656Y-59717712D01*
X60297712Y-59593656D01*
X60389814Y-59444334D01*
X60444999Y-59277797D01*
X60455500Y-59175009D01*
X60455499Y-58249992D01*
X60454716Y-58242331D01*
X60444999Y-58147203D01*
X60444998Y-58147200D01*
X60431837Y-58107482D01*
X60389814Y-57980666D01*
X60297712Y-57831344D01*
X60173656Y-57707288D01*
X60024334Y-57615186D01*
X59857797Y-57560001D01*
X59857795Y-57560000D01*
X59755010Y-57549500D01*
X58354998Y-57549500D01*
X58354981Y-57549501D01*
X58252203Y-57560000D01*
X58252200Y-57560001D01*
X58085668Y-57615185D01*
X58085663Y-57615187D01*
X57936342Y-57707289D01*
X57812289Y-57831342D01*
X57720187Y-57980663D01*
X57720186Y-57980666D01*
X57665001Y-58147203D01*
X57665001Y-58147204D01*
X57665000Y-58147204D01*
X57654500Y-58249983D01*
X57654500Y-59175001D01*
X57654501Y-59175019D01*
X57665000Y-59277796D01*
X57665001Y-59277799D01*
X57720185Y-59444331D01*
X57720187Y-59444336D01*
X57738951Y-59474757D01*
X57812288Y-59593656D01*
X57936344Y-59717712D01*
X57995596Y-59754258D01*
X58042321Y-59806204D01*
X58054500Y-59859797D01*
X58054500Y-61058541D01*
X58054500Y-61058543D01*
X58054499Y-61058543D01*
X58092947Y-61251829D01*
X58092950Y-61251839D01*
X58168364Y-61433907D01*
X58168371Y-61433920D01*
X58277859Y-61597780D01*
X58277860Y-61597781D01*
X58277861Y-61597782D01*
X58417218Y-61737139D01*
X58417219Y-61737139D01*
X58424286Y-61744206D01*
X58424285Y-61744206D01*
X58424289Y-61744209D01*
X61893181Y-65213101D01*
X61926666Y-65274424D01*
X61929500Y-65300782D01*
X61929500Y-86760488D01*
X61909815Y-86827527D01*
X61857011Y-86873282D01*
X61850542Y-86875685D01*
X61844603Y-86878255D01*
X61703137Y-86961917D01*
X61703129Y-86961923D01*
X61586923Y-87078129D01*
X61586917Y-87078137D01*
X61503255Y-87219603D01*
X61503254Y-87219606D01*
X61457402Y-87377426D01*
X61457401Y-87377432D01*
X61454500Y-87414298D01*
X61454500Y-87845701D01*
X61457401Y-87882567D01*
X61457402Y-87882573D01*
X61503254Y-88040393D01*
X61503255Y-88040396D01*
X61503256Y-88040398D01*
X61508524Y-88049306D01*
X61586917Y-88181862D01*
X61591702Y-88188031D01*
X61589256Y-88189927D01*
X61615857Y-88238642D01*
X61610873Y-88308334D01*
X61590069Y-88340703D01*
X61591702Y-88341969D01*
X61586917Y-88348137D01*
X61503255Y-88489603D01*
X61503254Y-88489606D01*
X61457402Y-88647426D01*
X61457401Y-88647432D01*
X61454500Y-88684298D01*
X61454500Y-89115701D01*
X61457401Y-89152567D01*
X61457402Y-89152573D01*
X61474350Y-89210905D01*
X61474151Y-89280774D01*
X61436209Y-89339444D01*
X61372571Y-89368288D01*
X61355274Y-89369500D01*
X58167940Y-89369500D01*
X58100901Y-89349815D01*
X58080259Y-89333181D01*
X56681818Y-87934740D01*
X56648333Y-87873417D01*
X56645499Y-87847059D01*
X56645499Y-87167498D01*
X56645498Y-87167481D01*
X56634999Y-87064703D01*
X56634998Y-87064700D01*
X56600941Y-86961923D01*
X56579814Y-86898166D01*
X56487712Y-86748844D01*
X56363656Y-86624788D01*
X56214334Y-86532686D01*
X56047797Y-86477501D01*
X56047795Y-86477500D01*
X55945010Y-86467000D01*
X54544998Y-86467000D01*
X54544981Y-86467001D01*
X54442203Y-86477500D01*
X54442200Y-86477501D01*
X54275668Y-86532685D01*
X54275663Y-86532687D01*
X54126342Y-86624789D01*
X54002288Y-86748843D01*
X54002285Y-86748847D01*
X53988870Y-86770597D01*
X53936922Y-86817322D01*
X53883332Y-86829500D01*
X51526668Y-86829500D01*
X51459629Y-86809815D01*
X51421130Y-86770597D01*
X51407714Y-86748847D01*
X51407711Y-86748843D01*
X51283655Y-86624787D01*
X51261660Y-86611221D01*
X51214935Y-86559274D01*
X51203712Y-86490311D01*
X51231555Y-86426229D01*
X51239063Y-86418013D01*
X53326789Y-84330289D01*
X53414394Y-84199179D01*
X53474737Y-84053497D01*
X53505500Y-83898842D01*
X53505500Y-83741158D01*
X53505500Y-83387351D01*
X53525185Y-83320312D01*
X53577989Y-83274557D01*
X53616247Y-83264061D01*
X53662483Y-83259091D01*
X53797331Y-83208796D01*
X53912546Y-83122546D01*
X53998796Y-83007331D01*
X54049091Y-82872483D01*
X54055500Y-82812873D01*
X54055499Y-81017128D01*
X54049091Y-80957517D01*
X53998796Y-80822669D01*
X53998795Y-80822668D01*
X53998793Y-80822664D01*
X53912547Y-80707455D01*
X53912544Y-80707452D01*
X53797335Y-80621206D01*
X53797328Y-80621202D01*
X53662482Y-80570908D01*
X53662483Y-80570908D01*
X53602883Y-80564501D01*
X53602881Y-80564500D01*
X53602873Y-80564500D01*
X53602864Y-80564500D01*
X51807129Y-80564500D01*
X51807123Y-80564501D01*
X51747516Y-80570908D01*
X51612671Y-80621202D01*
X51612664Y-80621206D01*
X51497455Y-80707452D01*
X51497452Y-80707455D01*
X51411206Y-80822664D01*
X51411202Y-80822671D01*
X51360908Y-80957517D01*
X51354501Y-81017116D01*
X51354501Y-81017123D01*
X51354500Y-81017135D01*
X51354500Y-82812870D01*
X51354501Y-82812876D01*
X51360908Y-82872483D01*
X51411202Y-83007328D01*
X51411206Y-83007335D01*
X51497452Y-83122544D01*
X51497455Y-83122547D01*
X51612664Y-83208793D01*
X51612671Y-83208797D01*
X51747516Y-83259091D01*
X51793757Y-83264063D01*
X51795875Y-83264940D01*
X51798147Y-83264614D01*
X51827995Y-83278245D01*
X51858307Y-83290801D01*
X51859615Y-83292685D01*
X51861703Y-83293639D01*
X51879442Y-83321242D01*
X51898155Y-83348194D01*
X51898624Y-83351090D01*
X51899477Y-83352417D01*
X51904500Y-83387352D01*
X51904500Y-83437060D01*
X51884815Y-83504099D01*
X51868181Y-83524741D01*
X49234741Y-86158181D01*
X49173418Y-86191666D01*
X49147060Y-86194500D01*
X47229726Y-86194500D01*
X47162687Y-86174815D01*
X47116932Y-86122011D01*
X47106988Y-86052853D01*
X47110650Y-86035905D01*
X47127597Y-85977573D01*
X47127598Y-85977567D01*
X47130499Y-85940701D01*
X47130500Y-85940694D01*
X47130500Y-85509306D01*
X47127598Y-85472431D01*
X47081744Y-85314602D01*
X46998081Y-85173135D01*
X46998078Y-85173132D01*
X46993298Y-85166969D01*
X46995750Y-85165066D01*
X46969155Y-85116421D01*
X46974104Y-85046726D01*
X46994940Y-85014304D01*
X46993298Y-85013031D01*
X46998075Y-85006870D01*
X46998081Y-85006865D01*
X47081744Y-84865398D01*
X47127598Y-84707569D01*
X47130500Y-84670694D01*
X47130500Y-84239306D01*
X47127598Y-84202431D01*
X47126653Y-84199179D01*
X47081745Y-84044606D01*
X47081744Y-84044603D01*
X47081744Y-84044602D01*
X46998081Y-83903135D01*
X46998079Y-83903133D01*
X46998076Y-83903129D01*
X46881870Y-83786923D01*
X46881862Y-83786917D01*
X46740396Y-83703255D01*
X46740393Y-83703254D01*
X46582573Y-83657402D01*
X46582567Y-83657401D01*
X46545701Y-83654500D01*
X46545694Y-83654500D01*
X44764306Y-83654500D01*
X44764298Y-83654500D01*
X44727432Y-83657401D01*
X44727426Y-83657402D01*
X44569606Y-83703254D01*
X44569603Y-83703255D01*
X44428137Y-83786917D01*
X44428129Y-83786923D01*
X44311923Y-83903129D01*
X44311917Y-83903137D01*
X44228255Y-84044603D01*
X44228254Y-84044606D01*
X44182402Y-84202426D01*
X44182401Y-84202432D01*
X44179500Y-84239298D01*
X44179500Y-84670701D01*
X44182401Y-84707567D01*
X44182402Y-84707573D01*
X44228254Y-84865393D01*
X44228255Y-84865396D01*
X44311917Y-85006862D01*
X44316702Y-85013031D01*
X44314256Y-85014927D01*
X44340857Y-85063642D01*
X44335873Y-85133334D01*
X44315069Y-85165703D01*
X44316702Y-85166969D01*
X44311917Y-85173137D01*
X44228255Y-85314603D01*
X44228254Y-85314606D01*
X44182402Y-85472426D01*
X44182401Y-85472432D01*
X44179500Y-85509298D01*
X44179500Y-85940701D01*
X44182401Y-85977567D01*
X44182402Y-85977573D01*
X44228254Y-86135393D01*
X44228255Y-86135396D01*
X44311917Y-86276862D01*
X44316702Y-86283031D01*
X44314256Y-86284927D01*
X44340857Y-86333642D01*
X44335873Y-86403334D01*
X44315069Y-86435703D01*
X44316702Y-86436969D01*
X44311917Y-86443137D01*
X44228255Y-86584603D01*
X44228254Y-86584606D01*
X44182402Y-86742426D01*
X44182401Y-86742432D01*
X44179500Y-86779298D01*
X44179500Y-87210701D01*
X44182401Y-87247567D01*
X44182402Y-87247573D01*
X44228254Y-87405393D01*
X44228255Y-87405396D01*
X44228256Y-87405398D01*
X44233524Y-87414306D01*
X44311917Y-87546862D01*
X44316702Y-87553031D01*
X44314256Y-87554927D01*
X44340857Y-87603642D01*
X44335873Y-87673334D01*
X44315069Y-87705703D01*
X44316702Y-87706969D01*
X44311917Y-87713137D01*
X44228255Y-87854603D01*
X44228254Y-87854606D01*
X44182402Y-88012426D01*
X44182401Y-88012432D01*
X44179500Y-88049298D01*
X44179500Y-88480701D01*
X44182401Y-88517567D01*
X44182402Y-88517573D01*
X44228254Y-88675393D01*
X44228255Y-88675396D01*
X44228256Y-88675398D01*
X44233524Y-88684306D01*
X44311917Y-88816862D01*
X44311923Y-88816870D01*
X44428129Y-88933076D01*
X44428133Y-88933079D01*
X44428135Y-88933081D01*
X44569602Y-89016744D01*
X44580806Y-89019999D01*
X44727426Y-89062597D01*
X44727429Y-89062597D01*
X44727431Y-89062598D01*
X44740227Y-89063605D01*
X44805516Y-89088488D01*
X44846988Y-89144718D01*
X44854500Y-89187223D01*
X44854500Y-91954730D01*
X44853858Y-91967333D01*
X44849500Y-92009983D01*
X44849500Y-93410001D01*
X44849501Y-93410018D01*
X44860000Y-93512796D01*
X44860001Y-93512799D01*
X44915115Y-93679119D01*
X44915186Y-93679334D01*
X45007288Y-93828656D01*
X45131344Y-93952712D01*
X45280666Y-94044814D01*
X45447203Y-94099999D01*
X45549991Y-94110500D01*
X46475008Y-94110499D01*
X46475016Y-94110498D01*
X46475019Y-94110498D01*
X46531302Y-94104748D01*
X46577797Y-94099999D01*
X46744334Y-94044814D01*
X46893656Y-93952712D01*
X47017712Y-93828656D01*
X47109814Y-93679334D01*
X47164999Y-93512797D01*
X47175500Y-93410009D01*
X47175499Y-92009992D01*
X47164999Y-91907203D01*
X47109814Y-91740666D01*
X47017712Y-91591344D01*
X46893656Y-91467288D01*
X46744334Y-91375186D01*
X46577797Y-91320001D01*
X46573011Y-91319512D01*
X46566894Y-91318887D01*
X46564457Y-91317892D01*
X46561853Y-91318267D01*
X46532296Y-91304769D01*
X46502203Y-91292489D01*
X46500690Y-91290335D01*
X46498297Y-91289242D01*
X46480729Y-91261906D01*
X46462053Y-91235307D01*
X46461507Y-91231996D01*
X46460523Y-91230464D01*
X46458657Y-91217486D01*
X48765001Y-91217486D01*
X48775494Y-91320197D01*
X48830641Y-91486619D01*
X48830643Y-91486624D01*
X48922684Y-91635845D01*
X49046654Y-91759815D01*
X49195875Y-91851856D01*
X49195880Y-91851858D01*
X49362302Y-91907005D01*
X49362309Y-91907006D01*
X49465019Y-91917499D01*
X49914999Y-91917499D01*
X50415000Y-91917499D01*
X50864972Y-91917499D01*
X50864986Y-91917498D01*
X50967697Y-91907005D01*
X51134119Y-91851858D01*
X51134124Y-91851856D01*
X51283345Y-91759815D01*
X51407315Y-91635845D01*
X51499356Y-91486624D01*
X51499358Y-91486619D01*
X51554505Y-91320197D01*
X51554506Y-91320190D01*
X51564999Y-91217486D01*
X53845001Y-91217486D01*
X53855494Y-91320197D01*
X53910641Y-91486619D01*
X53910643Y-91486624D01*
X54002684Y-91635845D01*
X54126654Y-91759815D01*
X54275875Y-91851856D01*
X54275880Y-91851858D01*
X54442302Y-91907005D01*
X54442309Y-91907006D01*
X54545019Y-91917499D01*
X54994999Y-91917499D01*
X55495000Y-91917499D01*
X55944972Y-91917499D01*
X55944986Y-91917498D01*
X56047697Y-91907005D01*
X56214119Y-91851858D01*
X56214124Y-91851856D01*
X56363345Y-91759815D01*
X56433159Y-91690001D01*
X61457704Y-91690001D01*
X61457899Y-91692486D01*
X61503718Y-91850198D01*
X61587314Y-91991552D01*
X61587321Y-91991561D01*
X61703438Y-92107678D01*
X61703447Y-92107685D01*
X61844803Y-92191282D01*
X61844806Y-92191283D01*
X62002504Y-92237099D01*
X62002510Y-92237100D01*
X62039350Y-92239999D01*
X62039366Y-92240000D01*
X62680000Y-92240000D01*
X63180000Y-92240000D01*
X63820634Y-92240000D01*
X63820649Y-92239999D01*
X63857489Y-92237100D01*
X63857495Y-92237099D01*
X64015193Y-92191283D01*
X64015196Y-92191282D01*
X64156552Y-92107685D01*
X64156561Y-92107678D01*
X64272678Y-91991561D01*
X64272685Y-91991552D01*
X64356281Y-91850198D01*
X64402100Y-91692486D01*
X64402295Y-91690001D01*
X64402295Y-91690000D01*
X63180000Y-91690000D01*
X63180000Y-92240000D01*
X62680000Y-92240000D01*
X62680000Y-91690000D01*
X61457705Y-91690000D01*
X61457704Y-91690001D01*
X56433159Y-91690001D01*
X56487316Y-91635844D01*
X56487319Y-91635840D01*
X56521415Y-91580562D01*
X56521417Y-91580559D01*
X56579356Y-91486624D01*
X56579358Y-91486619D01*
X56634505Y-91320197D01*
X56634506Y-91320190D01*
X56644999Y-91217486D01*
X56645000Y-91217473D01*
X56645000Y-91005000D01*
X55495000Y-91005000D01*
X55495000Y-91917499D01*
X54994999Y-91917499D01*
X54995000Y-91917498D01*
X54995000Y-91005000D01*
X53845001Y-91005000D01*
X53845001Y-91217486D01*
X51564999Y-91217486D01*
X51565000Y-91217473D01*
X51565000Y-91005000D01*
X50415000Y-91005000D01*
X50415000Y-91917499D01*
X49914999Y-91917499D01*
X49915000Y-91917498D01*
X49915000Y-91005000D01*
X48765001Y-91005000D01*
X48765001Y-91217486D01*
X46458657Y-91217486D01*
X46455500Y-91195529D01*
X46455500Y-90292513D01*
X48765000Y-90292513D01*
X48765000Y-90505000D01*
X49915000Y-90505000D01*
X50415000Y-90505000D01*
X51564999Y-90505000D01*
X51564999Y-90292529D01*
X51564998Y-90292513D01*
X53845000Y-90292513D01*
X53845000Y-90505000D01*
X54995000Y-90505000D01*
X54995000Y-89592500D01*
X54545028Y-89592500D01*
X54545012Y-89592501D01*
X54442302Y-89602994D01*
X54275880Y-89658141D01*
X54275875Y-89658143D01*
X54126654Y-89750184D01*
X54002684Y-89874154D01*
X53910643Y-90023375D01*
X53910641Y-90023380D01*
X53855494Y-90189802D01*
X53855493Y-90189809D01*
X53845000Y-90292513D01*
X51564998Y-90292513D01*
X51564998Y-90292512D01*
X51554505Y-90189802D01*
X51499358Y-90023380D01*
X51499356Y-90023375D01*
X51407315Y-89874154D01*
X51283345Y-89750184D01*
X51134124Y-89658143D01*
X51134119Y-89658141D01*
X50967697Y-89602994D01*
X50967690Y-89602993D01*
X50864986Y-89592500D01*
X50415000Y-89592500D01*
X50415000Y-90505000D01*
X49915000Y-90505000D01*
X49915000Y-89592500D01*
X49465028Y-89592500D01*
X49465012Y-89592501D01*
X49362302Y-89602994D01*
X49195880Y-89658141D01*
X49195875Y-89658143D01*
X49046654Y-89750184D01*
X48922684Y-89874154D01*
X48830643Y-90023375D01*
X48830641Y-90023380D01*
X48775494Y-90189802D01*
X48775493Y-90189809D01*
X48765000Y-90292513D01*
X46455500Y-90292513D01*
X46455500Y-89187223D01*
X46475185Y-89120184D01*
X46527989Y-89074429D01*
X46569773Y-89063605D01*
X46582569Y-89062598D01*
X46582571Y-89062597D01*
X46582573Y-89062597D01*
X46624191Y-89050505D01*
X46740398Y-89016744D01*
X46881865Y-88933081D01*
X46998081Y-88816865D01*
X47081744Y-88675398D01*
X47127598Y-88517569D01*
X47130500Y-88480694D01*
X47130500Y-88049306D01*
X47127598Y-88012431D01*
X47110650Y-87954095D01*
X47110849Y-87884226D01*
X47148791Y-87825556D01*
X47212429Y-87796712D01*
X47229726Y-87795500D01*
X48640501Y-87795500D01*
X48707540Y-87815185D01*
X48753295Y-87867989D01*
X48764501Y-87919500D01*
X48764501Y-88092518D01*
X48775000Y-88195296D01*
X48775001Y-88195299D01*
X48819643Y-88330018D01*
X48830186Y-88361834D01*
X48922288Y-88511156D01*
X49046344Y-88635212D01*
X49195666Y-88727314D01*
X49362203Y-88782499D01*
X49464991Y-88793000D01*
X50865008Y-88792999D01*
X50967797Y-88782499D01*
X51134334Y-88727314D01*
X51283656Y-88635212D01*
X51407712Y-88511156D01*
X51413337Y-88502034D01*
X51421130Y-88489403D01*
X51473078Y-88442678D01*
X51526668Y-88430500D01*
X53883332Y-88430500D01*
X53950371Y-88450185D01*
X53988870Y-88489403D01*
X54002285Y-88511152D01*
X54002288Y-88511156D01*
X54126344Y-88635212D01*
X54275666Y-88727314D01*
X54442203Y-88782499D01*
X54544991Y-88793000D01*
X55224559Y-88792999D01*
X55291598Y-88812683D01*
X55312240Y-88829318D01*
X55863741Y-89380819D01*
X55897226Y-89442142D01*
X55892242Y-89511834D01*
X55850370Y-89567767D01*
X55784906Y-89592184D01*
X55776060Y-89592500D01*
X55495000Y-89592500D01*
X55495000Y-90505000D01*
X56644999Y-90505000D01*
X56644999Y-90461439D01*
X56664684Y-90394400D01*
X56717488Y-90348645D01*
X56786646Y-90338701D01*
X56850202Y-90367726D01*
X56856680Y-90373758D01*
X57163211Y-90680289D01*
X57244648Y-90761726D01*
X57274712Y-90791790D01*
X57405817Y-90879392D01*
X57405819Y-90879392D01*
X57405821Y-90879394D01*
X57508062Y-90921743D01*
X57508064Y-90921745D01*
X57547994Y-90938284D01*
X57551502Y-90939737D01*
X57691568Y-90967598D01*
X57706152Y-90970499D01*
X57706155Y-90970500D01*
X61355795Y-90970500D01*
X61422834Y-90990185D01*
X61468589Y-91042989D01*
X61478533Y-91112147D01*
X61474871Y-91129095D01*
X61457900Y-91187505D01*
X61457899Y-91187511D01*
X61457704Y-91189998D01*
X61457705Y-91190000D01*
X64402295Y-91190000D01*
X64402295Y-91189998D01*
X64402100Y-91187513D01*
X64356281Y-91029801D01*
X64272685Y-90888447D01*
X64267900Y-90882278D01*
X64270366Y-90880364D01*
X64243802Y-90831776D01*
X64248749Y-90762082D01*
X64262811Y-90735047D01*
X64269241Y-90725704D01*
X64273081Y-90721865D01*
X64280384Y-90709516D01*
X64282796Y-90706012D01*
X64306737Y-90686558D01*
X64329274Y-90665515D01*
X64333604Y-90664727D01*
X64337021Y-90661951D01*
X64367666Y-90658530D01*
X64398015Y-90653009D01*
X64402085Y-90654688D01*
X64406460Y-90654200D01*
X64434096Y-90667893D01*
X64462605Y-90679654D01*
X64465426Y-90683417D01*
X64469065Y-90685220D01*
X64478141Y-90700376D01*
X64499500Y-90728865D01*
X64518366Y-90774413D01*
X64518371Y-90774422D01*
X64627860Y-90938283D01*
X64627863Y-90938287D01*
X64771537Y-91081961D01*
X64771559Y-91081981D01*
X65794233Y-92104655D01*
X65794262Y-92104686D01*
X65936712Y-92247136D01*
X65936716Y-92247139D01*
X66100577Y-92356628D01*
X66100590Y-92356635D01*
X66229331Y-92409961D01*
X66272242Y-92427735D01*
X66282662Y-92432051D01*
X66379310Y-92451275D01*
X66423172Y-92460000D01*
X66475956Y-92470500D01*
X66475957Y-92470500D01*
X67978543Y-92470500D01*
X68108582Y-92444632D01*
X68171835Y-92432051D01*
X68353914Y-92356632D01*
X68496442Y-92261398D01*
X68563119Y-92240520D01*
X68565333Y-92240500D01*
X68770686Y-92240500D01*
X68770694Y-92240500D01*
X68807569Y-92237598D01*
X68807571Y-92237597D01*
X68807573Y-92237597D01*
X68849191Y-92225505D01*
X68965398Y-92191744D01*
X69106865Y-92108081D01*
X69223081Y-91991865D01*
X69306744Y-91850398D01*
X69352598Y-91692569D01*
X69355500Y-91655694D01*
X69355500Y-91224306D01*
X69352598Y-91187431D01*
X69306744Y-91029602D01*
X69223081Y-90888135D01*
X69223078Y-90888132D01*
X69218298Y-90881969D01*
X69220750Y-90880066D01*
X69194155Y-90831421D01*
X69199104Y-90761726D01*
X69219940Y-90729304D01*
X69218298Y-90728031D01*
X69223075Y-90721870D01*
X69223081Y-90721865D01*
X69306744Y-90580398D01*
X69352598Y-90422569D01*
X69355500Y-90385694D01*
X69355500Y-89954306D01*
X69352598Y-89917431D01*
X69339531Y-89872456D01*
X69306745Y-89759606D01*
X69306744Y-89759603D01*
X69306744Y-89759602D01*
X69223081Y-89618135D01*
X69223078Y-89618132D01*
X69218298Y-89611969D01*
X69220750Y-89610066D01*
X69194155Y-89561421D01*
X69199104Y-89491726D01*
X69219940Y-89459304D01*
X69218298Y-89458031D01*
X69223075Y-89451870D01*
X69223081Y-89451865D01*
X69306744Y-89310398D01*
X69352598Y-89152569D01*
X69355500Y-89115694D01*
X69355500Y-88684306D01*
X69352598Y-88647431D01*
X69349047Y-88635210D01*
X69306745Y-88489606D01*
X69306744Y-88489603D01*
X69306744Y-88489602D01*
X69223081Y-88348135D01*
X69223078Y-88348132D01*
X69218298Y-88341969D01*
X69220750Y-88340066D01*
X69194155Y-88291421D01*
X69199104Y-88221726D01*
X69219940Y-88189304D01*
X69218298Y-88188031D01*
X69223075Y-88181870D01*
X69223081Y-88181865D01*
X69306744Y-88040398D01*
X69352598Y-87882569D01*
X69355500Y-87845694D01*
X69355500Y-87414306D01*
X69352598Y-87377431D01*
X69306744Y-87219602D01*
X69223081Y-87078135D01*
X69223079Y-87078133D01*
X69223076Y-87078129D01*
X69106870Y-86961923D01*
X69106866Y-86961920D01*
X69106865Y-86961919D01*
X69106862Y-86961917D01*
X69106859Y-86961915D01*
X69098874Y-86957192D01*
X69051193Y-86906121D01*
X69038000Y-86850463D01*
X69038000Y-85357282D01*
X69057685Y-85290243D01*
X69110489Y-85244488D01*
X69179647Y-85234544D01*
X69243203Y-85263569D01*
X69249681Y-85269601D01*
X72623181Y-88643101D01*
X72656666Y-88704424D01*
X72659500Y-88730782D01*
X72659500Y-94149218D01*
X72639815Y-94216257D01*
X72623181Y-94236899D01*
X71376899Y-95483181D01*
X71315576Y-95516666D01*
X71289218Y-95519500D01*
X35390782Y-95519500D01*
X35323743Y-95499815D01*
X35303101Y-95483181D01*
X33229906Y-93409986D01*
X41725001Y-93409986D01*
X41735494Y-93512697D01*
X41790641Y-93679119D01*
X41790643Y-93679124D01*
X41882684Y-93828345D01*
X42006654Y-93952315D01*
X42155875Y-94044356D01*
X42155880Y-94044358D01*
X42322302Y-94099505D01*
X42322309Y-94099506D01*
X42425019Y-94109999D01*
X42637499Y-94109999D01*
X43137500Y-94109999D01*
X43349972Y-94109999D01*
X43349986Y-94109998D01*
X43452697Y-94099505D01*
X43619119Y-94044358D01*
X43619124Y-94044356D01*
X43768345Y-93952315D01*
X43892315Y-93828345D01*
X43984356Y-93679124D01*
X43984358Y-93679119D01*
X44039505Y-93512697D01*
X44039506Y-93512690D01*
X44049999Y-93409986D01*
X44050000Y-93409973D01*
X44050000Y-92960000D01*
X43137500Y-92960000D01*
X43137500Y-94109999D01*
X42637499Y-94109999D01*
X42637500Y-94109998D01*
X42637500Y-92960000D01*
X41725001Y-92960000D01*
X41725001Y-93409986D01*
X33229906Y-93409986D01*
X31829933Y-92010013D01*
X41725000Y-92010013D01*
X41725000Y-92460000D01*
X42637500Y-92460000D01*
X43137500Y-92460000D01*
X44049999Y-92460000D01*
X44049999Y-92010028D01*
X44049998Y-92010013D01*
X44039505Y-91907302D01*
X43984358Y-91740880D01*
X43984356Y-91740875D01*
X43892315Y-91591654D01*
X43768345Y-91467684D01*
X43619124Y-91375643D01*
X43619119Y-91375641D01*
X43452697Y-91320494D01*
X43452690Y-91320493D01*
X43349986Y-91310000D01*
X43137500Y-91310000D01*
X43137500Y-92460000D01*
X42637500Y-92460000D01*
X42637500Y-91310000D01*
X42425029Y-91310000D01*
X42425012Y-91310001D01*
X42322302Y-91320494D01*
X42155880Y-91375641D01*
X42155875Y-91375643D01*
X42006654Y-91467684D01*
X41882684Y-91591654D01*
X41790643Y-91740875D01*
X41790641Y-91740880D01*
X41735494Y-91907302D01*
X41735493Y-91907309D01*
X41725000Y-92010013D01*
X31829933Y-92010013D01*
X28149906Y-88329986D01*
X32200001Y-88329986D01*
X32210494Y-88432697D01*
X32265641Y-88599119D01*
X32265643Y-88599124D01*
X32357684Y-88748345D01*
X32481654Y-88872315D01*
X32630875Y-88964356D01*
X32630880Y-88964358D01*
X32797302Y-89019505D01*
X32797309Y-89019506D01*
X32900019Y-89029999D01*
X33112499Y-89029999D01*
X33612500Y-89029999D01*
X33824972Y-89029999D01*
X33824986Y-89029998D01*
X33927697Y-89019505D01*
X34094119Y-88964358D01*
X34094124Y-88964356D01*
X34243345Y-88872315D01*
X34367315Y-88748345D01*
X34459356Y-88599124D01*
X34459358Y-88599119D01*
X34514505Y-88432697D01*
X34514506Y-88432690D01*
X34524999Y-88329986D01*
X34525000Y-88329973D01*
X34525000Y-87880000D01*
X33612500Y-87880000D01*
X33612500Y-89029999D01*
X33112499Y-89029999D01*
X33112500Y-89029998D01*
X33112500Y-87880000D01*
X32200001Y-87880000D01*
X32200001Y-88329986D01*
X28149906Y-88329986D01*
X26749933Y-86930013D01*
X32200000Y-86930013D01*
X32200000Y-87380000D01*
X33112500Y-87380000D01*
X33612500Y-87380000D01*
X34524999Y-87380000D01*
X34524999Y-86930028D01*
X34524998Y-86930013D01*
X34514505Y-86827302D01*
X34459358Y-86660880D01*
X34459356Y-86660875D01*
X34367315Y-86511654D01*
X34243345Y-86387684D01*
X34094124Y-86295643D01*
X34094119Y-86295641D01*
X33927697Y-86240494D01*
X33927690Y-86240493D01*
X33824986Y-86230000D01*
X33612500Y-86230000D01*
X33612500Y-87380000D01*
X33112500Y-87380000D01*
X33112500Y-86230000D01*
X32900029Y-86230000D01*
X32900012Y-86230001D01*
X32797302Y-86240494D01*
X32630880Y-86295641D01*
X32630875Y-86295643D01*
X32481654Y-86387684D01*
X32357684Y-86511654D01*
X32265643Y-86660875D01*
X32265641Y-86660880D01*
X32210494Y-86827302D01*
X32210493Y-86827309D01*
X32200000Y-86930013D01*
X26749933Y-86930013D01*
X24339906Y-84519986D01*
X32200001Y-84519986D01*
X32210494Y-84622697D01*
X32265641Y-84789119D01*
X32265643Y-84789124D01*
X32357684Y-84938345D01*
X32481654Y-85062315D01*
X32630875Y-85154356D01*
X32630880Y-85154358D01*
X32797302Y-85209505D01*
X32797309Y-85209506D01*
X32900019Y-85219999D01*
X33112499Y-85219999D01*
X33612500Y-85219999D01*
X33824972Y-85219999D01*
X33824986Y-85219998D01*
X33927697Y-85209505D01*
X34094119Y-85154358D01*
X34094124Y-85154356D01*
X34243345Y-85062315D01*
X34367315Y-84938345D01*
X34459356Y-84789124D01*
X34459358Y-84789119D01*
X34514505Y-84622697D01*
X34514506Y-84622690D01*
X34524999Y-84519986D01*
X34525000Y-84519973D01*
X34525000Y-84070000D01*
X33612500Y-84070000D01*
X33612500Y-85219999D01*
X33112499Y-85219999D01*
X33112500Y-85219998D01*
X33112500Y-84070000D01*
X32200001Y-84070000D01*
X32200001Y-84519986D01*
X24339906Y-84519986D01*
X23261819Y-83441899D01*
X23247115Y-83414971D01*
X23230523Y-83389153D01*
X23229631Y-83382952D01*
X23228334Y-83380576D01*
X23225500Y-83354218D01*
X23225500Y-83120013D01*
X32200000Y-83120013D01*
X32200000Y-83570000D01*
X33112500Y-83570000D01*
X33112500Y-82420000D01*
X32900029Y-82420000D01*
X32900012Y-82420001D01*
X32797302Y-82430494D01*
X32630880Y-82485641D01*
X32630875Y-82485643D01*
X32481654Y-82577684D01*
X32357684Y-82701654D01*
X32265643Y-82850875D01*
X32265641Y-82850880D01*
X32210494Y-83017302D01*
X32210493Y-83017309D01*
X32200000Y-83120013D01*
X23225500Y-83120013D01*
X23225500Y-79864500D01*
X23245185Y-79797461D01*
X23297989Y-79751706D01*
X23349500Y-79740500D01*
X30941718Y-79740500D01*
X31008757Y-79760185D01*
X31029399Y-79776819D01*
X33576181Y-82323601D01*
X33609666Y-82384924D01*
X33612500Y-82411282D01*
X33612500Y-83570000D01*
X34524999Y-83570000D01*
X34525739Y-83569259D01*
X34544684Y-83504742D01*
X34597488Y-83458987D01*
X34666646Y-83449043D01*
X34730202Y-83478068D01*
X34736680Y-83484100D01*
X35288181Y-84035601D01*
X35321666Y-84096924D01*
X35324500Y-84123282D01*
X35324500Y-84520001D01*
X35324501Y-84520019D01*
X35335000Y-84622796D01*
X35335001Y-84622799D01*
X35363093Y-84707573D01*
X35390186Y-84789334D01*
X35482288Y-84938656D01*
X35606344Y-85062712D01*
X35628094Y-85076127D01*
X35674820Y-85128073D01*
X35687000Y-85181667D01*
X35687000Y-86268331D01*
X35667315Y-86335370D01*
X35628100Y-86373868D01*
X35606343Y-86387288D01*
X35482289Y-86511342D01*
X35390187Y-86660663D01*
X35390185Y-86660668D01*
X35390115Y-86660880D01*
X35335001Y-86827203D01*
X35335001Y-86827204D01*
X35335000Y-86827204D01*
X35324500Y-86929983D01*
X35324500Y-88330001D01*
X35324501Y-88330018D01*
X35335000Y-88432796D01*
X35335001Y-88432799D01*
X35390185Y-88599331D01*
X35390187Y-88599336D01*
X35419849Y-88647426D01*
X35482288Y-88748656D01*
X35606344Y-88872712D01*
X35755666Y-88964814D01*
X35922203Y-89019999D01*
X36024991Y-89030500D01*
X36950008Y-89030499D01*
X36950016Y-89030498D01*
X36950019Y-89030498D01*
X37006302Y-89024748D01*
X37052797Y-89019999D01*
X37219334Y-88964814D01*
X37368656Y-88872712D01*
X37492712Y-88748656D01*
X37584814Y-88599334D01*
X37612759Y-88515001D01*
X39232704Y-88515001D01*
X39232899Y-88517486D01*
X39278718Y-88675198D01*
X39362314Y-88816552D01*
X39362321Y-88816561D01*
X39478438Y-88932678D01*
X39478447Y-88932685D01*
X39619803Y-89016282D01*
X39619806Y-89016283D01*
X39777504Y-89062099D01*
X39777510Y-89062100D01*
X39814350Y-89064999D01*
X39814366Y-89065000D01*
X40455000Y-89065000D01*
X40955000Y-89065000D01*
X41595634Y-89065000D01*
X41595649Y-89064999D01*
X41632489Y-89062100D01*
X41632495Y-89062099D01*
X41790193Y-89016283D01*
X41790196Y-89016282D01*
X41931552Y-88932685D01*
X41931561Y-88932678D01*
X42047678Y-88816561D01*
X42047685Y-88816552D01*
X42131281Y-88675198D01*
X42177100Y-88517486D01*
X42177295Y-88515001D01*
X42177295Y-88515000D01*
X40955000Y-88515000D01*
X40955000Y-89065000D01*
X40455000Y-89065000D01*
X40455000Y-88515000D01*
X39232705Y-88515000D01*
X39232704Y-88515001D01*
X37612759Y-88515001D01*
X37639999Y-88432797D01*
X37650500Y-88330009D01*
X37650499Y-87650438D01*
X37670183Y-87583400D01*
X37686813Y-87562763D01*
X38687759Y-86561819D01*
X38749082Y-86528334D01*
X38775440Y-86525500D01*
X39130274Y-86525500D01*
X39197313Y-86545185D01*
X39243068Y-86597989D01*
X39253012Y-86667147D01*
X39249350Y-86684095D01*
X39232402Y-86742426D01*
X39232401Y-86742432D01*
X39229500Y-86779298D01*
X39229500Y-87210701D01*
X39232401Y-87247567D01*
X39232402Y-87247573D01*
X39278254Y-87405393D01*
X39278255Y-87405396D01*
X39278256Y-87405398D01*
X39283524Y-87414306D01*
X39361917Y-87546862D01*
X39366702Y-87553031D01*
X39364369Y-87554840D01*
X39391210Y-87603995D01*
X39386226Y-87673687D01*
X39365470Y-87706021D01*
X39367097Y-87707283D01*
X39362313Y-87713449D01*
X39278718Y-87854801D01*
X39232899Y-88012513D01*
X39232704Y-88014998D01*
X39232705Y-88015000D01*
X42177295Y-88015000D01*
X42177295Y-88014998D01*
X42177100Y-88012513D01*
X42131281Y-87854801D01*
X42047685Y-87713447D01*
X42042900Y-87707278D01*
X42045366Y-87705364D01*
X42018802Y-87656776D01*
X42023749Y-87587082D01*
X42044856Y-87554232D01*
X42043301Y-87553026D01*
X42048077Y-87546868D01*
X42048081Y-87546865D01*
X42131744Y-87405398D01*
X42172679Y-87264500D01*
X42177597Y-87247573D01*
X42177598Y-87247567D01*
X42177815Y-87244815D01*
X42180500Y-87210694D01*
X42180500Y-86779306D01*
X42177598Y-86742431D01*
X42166868Y-86705500D01*
X42131745Y-86584606D01*
X42131744Y-86584603D01*
X42131744Y-86584602D01*
X42048081Y-86443135D01*
X42048078Y-86443132D01*
X42043298Y-86436969D01*
X42045750Y-86435066D01*
X42019155Y-86386421D01*
X42024104Y-86316726D01*
X42044940Y-86284304D01*
X42043298Y-86283031D01*
X42048075Y-86276870D01*
X42048081Y-86276865D01*
X42131744Y-86135398D01*
X42177598Y-85977569D01*
X42180500Y-85940694D01*
X42180500Y-85509306D01*
X42177598Y-85472431D01*
X42131744Y-85314602D01*
X42048081Y-85173135D01*
X42048078Y-85173132D01*
X42043298Y-85166969D01*
X42045750Y-85165066D01*
X42019155Y-85116421D01*
X42024104Y-85046726D01*
X42044940Y-85014304D01*
X42043298Y-85013031D01*
X42048075Y-85006870D01*
X42048081Y-85006865D01*
X42131744Y-84865398D01*
X42177598Y-84707569D01*
X42180500Y-84670694D01*
X42180500Y-84239306D01*
X42177598Y-84202431D01*
X42176653Y-84199179D01*
X42131745Y-84044606D01*
X42131744Y-84044603D01*
X42131744Y-84044602D01*
X42048081Y-83903135D01*
X42048079Y-83903133D01*
X42048076Y-83903129D01*
X41931870Y-83786923D01*
X41931862Y-83786917D01*
X41790396Y-83703255D01*
X41790393Y-83703254D01*
X41632573Y-83657402D01*
X41632567Y-83657401D01*
X41595701Y-83654500D01*
X41595694Y-83654500D01*
X39814306Y-83654500D01*
X39814298Y-83654500D01*
X39777432Y-83657401D01*
X39777426Y-83657402D01*
X39619606Y-83703254D01*
X39619603Y-83703255D01*
X39478137Y-83786917D01*
X39478129Y-83786923D01*
X39361923Y-83903129D01*
X39361917Y-83903137D01*
X39278255Y-84044603D01*
X39278254Y-84044606D01*
X39232402Y-84202426D01*
X39232401Y-84202432D01*
X39229500Y-84239298D01*
X39229500Y-84670701D01*
X39232401Y-84707567D01*
X39232402Y-84707573D01*
X39249350Y-84765905D01*
X39249151Y-84835774D01*
X39211209Y-84894444D01*
X39147571Y-84923288D01*
X39130274Y-84924500D01*
X38775440Y-84924500D01*
X38708401Y-84904815D01*
X38687759Y-84888181D01*
X37686818Y-83887240D01*
X37653333Y-83825917D01*
X37650499Y-83799559D01*
X37650499Y-83119998D01*
X37650498Y-83119981D01*
X37639999Y-83017203D01*
X37639998Y-83017200D01*
X37636727Y-83007328D01*
X37584814Y-82850666D01*
X37492712Y-82701344D01*
X37368656Y-82577288D01*
X37219334Y-82485186D01*
X37052797Y-82430001D01*
X37052795Y-82430000D01*
X36950016Y-82419500D01*
X36950009Y-82419500D01*
X36553282Y-82419500D01*
X36486243Y-82399815D01*
X36465601Y-82383181D01*
X32188979Y-78106559D01*
X32188959Y-78106537D01*
X32045285Y-77962863D01*
X32045281Y-77962860D01*
X31881420Y-77853371D01*
X31881407Y-77853364D01*
X31752676Y-77800042D01*
X31752667Y-77800039D01*
X31745452Y-77797051D01*
X31699336Y-77777949D01*
X31602688Y-77758724D01*
X31598394Y-77757870D01*
X31598391Y-77757869D01*
X31506044Y-77739500D01*
X31506041Y-77739500D01*
X23349500Y-77739500D01*
X23282461Y-77719815D01*
X23236706Y-77667011D01*
X23225500Y-77615500D01*
X23225500Y-65938701D01*
X23245185Y-65871662D01*
X23261819Y-65851020D01*
X23865044Y-65247795D01*
X24472821Y-64640017D01*
X24534142Y-64606534D01*
X24603834Y-64611518D01*
X24659767Y-64653390D01*
X24684184Y-64718854D01*
X24684500Y-64727700D01*
X24684500Y-66302870D01*
X24684501Y-66302876D01*
X24690908Y-66362483D01*
X24741202Y-66497328D01*
X24741206Y-66497335D01*
X24827452Y-66612544D01*
X24827455Y-66612547D01*
X24942665Y-66698794D01*
X24942667Y-66698794D01*
X24942669Y-66698796D01*
X24953830Y-66702958D01*
X25009764Y-66744826D01*
X25034184Y-66810289D01*
X25034500Y-66819141D01*
X25034500Y-70003804D01*
X25016039Y-70068900D01*
X24950189Y-70175659D01*
X24950186Y-70175666D01*
X24895001Y-70342203D01*
X24895001Y-70342204D01*
X24895000Y-70342204D01*
X24884500Y-70444983D01*
X24884500Y-71795001D01*
X24884501Y-71795018D01*
X24895000Y-71897796D01*
X24895001Y-71897799D01*
X24941364Y-72037710D01*
X24950186Y-72064334D01*
X25042288Y-72213656D01*
X25166344Y-72337712D01*
X25315666Y-72429814D01*
X25482203Y-72484999D01*
X25584991Y-72495500D01*
X26485008Y-72495499D01*
X26485016Y-72495498D01*
X26485019Y-72495498D01*
X26541302Y-72489748D01*
X26587797Y-72484999D01*
X26754334Y-72429814D01*
X26903656Y-72337712D01*
X27027712Y-72213656D01*
X27119814Y-72064334D01*
X27174999Y-71897797D01*
X27185500Y-71795009D01*
X27185499Y-70444992D01*
X27185498Y-70444983D01*
X27984500Y-70444983D01*
X27984500Y-71795001D01*
X27984501Y-71795018D01*
X27995000Y-71897796D01*
X27995001Y-71897799D01*
X28041364Y-72037710D01*
X28050186Y-72064334D01*
X28142288Y-72213656D01*
X28266344Y-72337712D01*
X28415666Y-72429814D01*
X28582203Y-72484999D01*
X28684991Y-72495500D01*
X29585008Y-72495499D01*
X29585016Y-72495498D01*
X29585019Y-72495498D01*
X29641302Y-72489748D01*
X29687797Y-72484999D01*
X29854334Y-72429814D01*
X30003656Y-72337712D01*
X30127712Y-72213656D01*
X30219814Y-72064334D01*
X30239311Y-72005493D01*
X30279084Y-71948051D01*
X30343600Y-71921228D01*
X30357017Y-71920500D01*
X31162983Y-71920500D01*
X31230022Y-71940185D01*
X31275777Y-71992989D01*
X31280686Y-72005489D01*
X31300186Y-72064334D01*
X31392288Y-72213656D01*
X31516344Y-72337712D01*
X31665666Y-72429814D01*
X31832203Y-72484999D01*
X31934991Y-72495500D01*
X32835008Y-72495499D01*
X32835016Y-72495498D01*
X32835019Y-72495498D01*
X32891302Y-72489748D01*
X32937797Y-72484999D01*
X33104334Y-72429814D01*
X33253656Y-72337712D01*
X33377712Y-72213656D01*
X33469814Y-72064334D01*
X33524999Y-71897797D01*
X33535500Y-71795009D01*
X33535499Y-70444992D01*
X33535498Y-70444983D01*
X34334500Y-70444983D01*
X34334500Y-71795001D01*
X34334501Y-71795018D01*
X34345000Y-71897796D01*
X34345001Y-71897799D01*
X34391364Y-72037710D01*
X34400186Y-72064334D01*
X34492288Y-72213656D01*
X34616344Y-72337712D01*
X34765666Y-72429814D01*
X34932203Y-72484999D01*
X35034991Y-72495500D01*
X35935008Y-72495499D01*
X35935016Y-72495498D01*
X35935019Y-72495498D01*
X35991302Y-72489748D01*
X36037797Y-72484999D01*
X36204334Y-72429814D01*
X36353656Y-72337712D01*
X36477712Y-72213656D01*
X36569814Y-72064334D01*
X36589311Y-72005493D01*
X36629084Y-71948051D01*
X36693600Y-71921228D01*
X36707017Y-71920500D01*
X37512983Y-71920500D01*
X37580022Y-71940185D01*
X37625777Y-71992989D01*
X37630686Y-72005489D01*
X37650186Y-72064334D01*
X37742288Y-72213656D01*
X37866344Y-72337712D01*
X38015666Y-72429814D01*
X38182203Y-72484999D01*
X38284991Y-72495500D01*
X39185008Y-72495499D01*
X39185016Y-72495498D01*
X39185019Y-72495498D01*
X39241302Y-72489748D01*
X39287797Y-72484999D01*
X39454334Y-72429814D01*
X39603656Y-72337712D01*
X39727712Y-72213656D01*
X39819814Y-72064334D01*
X39874999Y-71897797D01*
X39885500Y-71795009D01*
X39885499Y-70444992D01*
X39885498Y-70444983D01*
X40684500Y-70444983D01*
X40684500Y-71795001D01*
X40684501Y-71795018D01*
X40695000Y-71897796D01*
X40695001Y-71897799D01*
X40741364Y-72037710D01*
X40750186Y-72064334D01*
X40842288Y-72213656D01*
X40966344Y-72337712D01*
X41115666Y-72429814D01*
X41282203Y-72484999D01*
X41384991Y-72495500D01*
X42285008Y-72495499D01*
X42285016Y-72495498D01*
X42285019Y-72495498D01*
X42341302Y-72489748D01*
X42387797Y-72484999D01*
X42554334Y-72429814D01*
X42703656Y-72337712D01*
X42827712Y-72213656D01*
X42919814Y-72064334D01*
X42939311Y-72005493D01*
X42979084Y-71948051D01*
X43043600Y-71921228D01*
X43057017Y-71920500D01*
X43862983Y-71920500D01*
X43930022Y-71940185D01*
X43975777Y-71992989D01*
X43980686Y-72005489D01*
X44000186Y-72064334D01*
X44092288Y-72213656D01*
X44216344Y-72337712D01*
X44365666Y-72429814D01*
X44532203Y-72484999D01*
X44634991Y-72495500D01*
X45535008Y-72495499D01*
X45535016Y-72495498D01*
X45535019Y-72495498D01*
X45591302Y-72489748D01*
X45637797Y-72484999D01*
X45804334Y-72429814D01*
X45953656Y-72337712D01*
X46077712Y-72213656D01*
X46169814Y-72064334D01*
X46224999Y-71897797D01*
X46235500Y-71795009D01*
X46235499Y-70444992D01*
X46224999Y-70342203D01*
X46169814Y-70175666D01*
X46077712Y-70026344D01*
X45953656Y-69902288D01*
X45804334Y-69810186D01*
X45637797Y-69755001D01*
X45637795Y-69755000D01*
X45535010Y-69744500D01*
X44634998Y-69744500D01*
X44634980Y-69744501D01*
X44532203Y-69755000D01*
X44532200Y-69755001D01*
X44365668Y-69810185D01*
X44365663Y-69810187D01*
X44216342Y-69902289D01*
X44092289Y-70026342D01*
X44000187Y-70175663D01*
X44000186Y-70175666D01*
X43980689Y-70234505D01*
X43940916Y-70291949D01*
X43876400Y-70318772D01*
X43862983Y-70319500D01*
X43057017Y-70319500D01*
X42989978Y-70299815D01*
X42944223Y-70247011D01*
X42939311Y-70234505D01*
X42919814Y-70175666D01*
X42827712Y-70026344D01*
X42703656Y-69902288D01*
X42554334Y-69810186D01*
X42387797Y-69755001D01*
X42387795Y-69755000D01*
X42285010Y-69744500D01*
X41384998Y-69744500D01*
X41384980Y-69744501D01*
X41282203Y-69755000D01*
X41282200Y-69755001D01*
X41115668Y-69810185D01*
X41115663Y-69810187D01*
X40966342Y-69902289D01*
X40842289Y-70026342D01*
X40750187Y-70175663D01*
X40750186Y-70175666D01*
X40695001Y-70342203D01*
X40695001Y-70342204D01*
X40695000Y-70342204D01*
X40684500Y-70444983D01*
X39885498Y-70444983D01*
X39874999Y-70342203D01*
X39819814Y-70175666D01*
X39727712Y-70026344D01*
X39603656Y-69902288D01*
X39454334Y-69810186D01*
X39287797Y-69755001D01*
X39287795Y-69755000D01*
X39185010Y-69744500D01*
X38284998Y-69744500D01*
X38284980Y-69744501D01*
X38182203Y-69755000D01*
X38182200Y-69755001D01*
X38015668Y-69810185D01*
X38015663Y-69810187D01*
X37866342Y-69902289D01*
X37742289Y-70026342D01*
X37650187Y-70175663D01*
X37650186Y-70175666D01*
X37630689Y-70234505D01*
X37590916Y-70291949D01*
X37526400Y-70318772D01*
X37512983Y-70319500D01*
X36707017Y-70319500D01*
X36639978Y-70299815D01*
X36594223Y-70247011D01*
X36589311Y-70234505D01*
X36569814Y-70175666D01*
X36477712Y-70026344D01*
X36353656Y-69902288D01*
X36204334Y-69810186D01*
X36037797Y-69755001D01*
X36037795Y-69755000D01*
X35935010Y-69744500D01*
X35034998Y-69744500D01*
X35034980Y-69744501D01*
X34932203Y-69755000D01*
X34932200Y-69755001D01*
X34765668Y-69810185D01*
X34765663Y-69810187D01*
X34616342Y-69902289D01*
X34492289Y-70026342D01*
X34400187Y-70175663D01*
X34400186Y-70175666D01*
X34345001Y-70342203D01*
X34345001Y-70342204D01*
X34345000Y-70342204D01*
X34334500Y-70444983D01*
X33535498Y-70444983D01*
X33524999Y-70342203D01*
X33469814Y-70175666D01*
X33377712Y-70026344D01*
X33253656Y-69902288D01*
X33104334Y-69810186D01*
X32937797Y-69755001D01*
X32937795Y-69755000D01*
X32835010Y-69744500D01*
X31934998Y-69744500D01*
X31934980Y-69744501D01*
X31832203Y-69755000D01*
X31832200Y-69755001D01*
X31665668Y-69810185D01*
X31665663Y-69810187D01*
X31516342Y-69902289D01*
X31392289Y-70026342D01*
X31300187Y-70175663D01*
X31300186Y-70175666D01*
X31280689Y-70234505D01*
X31240916Y-70291949D01*
X31176400Y-70318772D01*
X31162983Y-70319500D01*
X30357017Y-70319500D01*
X30289978Y-70299815D01*
X30244223Y-70247011D01*
X30239311Y-70234505D01*
X30219814Y-70175666D01*
X30127712Y-70026344D01*
X30003656Y-69902288D01*
X29854334Y-69810186D01*
X29687797Y-69755001D01*
X29687795Y-69755000D01*
X29585010Y-69744500D01*
X28684998Y-69744500D01*
X28684980Y-69744501D01*
X28582203Y-69755000D01*
X28582200Y-69755001D01*
X28415668Y-69810185D01*
X28415663Y-69810187D01*
X28266342Y-69902289D01*
X28142289Y-70026342D01*
X28050187Y-70175663D01*
X28050186Y-70175666D01*
X27995001Y-70342203D01*
X27995001Y-70342204D01*
X27995000Y-70342204D01*
X27984500Y-70444983D01*
X27185498Y-70444983D01*
X27174999Y-70342203D01*
X27119814Y-70175666D01*
X27053961Y-70068900D01*
X27035500Y-70003804D01*
X27035500Y-66819141D01*
X27055185Y-66752102D01*
X27107989Y-66706347D01*
X27116149Y-66702966D01*
X27127331Y-66698796D01*
X27242546Y-66612546D01*
X27328796Y-66497331D01*
X27379091Y-66362483D01*
X27385500Y-66302873D01*
X27385499Y-65527483D01*
X37969500Y-65527483D01*
X37969500Y-66452501D01*
X37969501Y-66452519D01*
X37980000Y-66555296D01*
X37980001Y-66555299D01*
X38035185Y-66721831D01*
X38035187Y-66721836D01*
X38044170Y-66736400D01*
X38127288Y-66871156D01*
X38251344Y-66995212D01*
X38400666Y-67087314D01*
X38567203Y-67142499D01*
X38669991Y-67153000D01*
X40070008Y-67152999D01*
X40172797Y-67142499D01*
X40339334Y-67087314D01*
X40488656Y-66995212D01*
X40612712Y-66871156D01*
X40619478Y-66860186D01*
X40626130Y-66849403D01*
X40678078Y-66802678D01*
X40731668Y-66790500D01*
X41818332Y-66790500D01*
X41885371Y-66810185D01*
X41923870Y-66849403D01*
X41937285Y-66871152D01*
X41937288Y-66871156D01*
X42061344Y-66995212D01*
X42210666Y-67087314D01*
X42377203Y-67142499D01*
X42479991Y-67153000D01*
X43880008Y-67152999D01*
X43982797Y-67142499D01*
X44149334Y-67087314D01*
X44298656Y-66995212D01*
X44422712Y-66871156D01*
X44429478Y-66860186D01*
X44436130Y-66849403D01*
X44488078Y-66802678D01*
X44541668Y-66790500D01*
X45628332Y-66790500D01*
X45695371Y-66810185D01*
X45733870Y-66849403D01*
X45747285Y-66871152D01*
X45747288Y-66871156D01*
X45871344Y-66995212D01*
X46020666Y-67087314D01*
X46187203Y-67142499D01*
X46289991Y-67153000D01*
X46969559Y-67152999D01*
X47036598Y-67172683D01*
X47057240Y-67189318D01*
X47348181Y-67480259D01*
X47381666Y-67541582D01*
X47384500Y-67567940D01*
X47384500Y-69791042D01*
X47364815Y-69858081D01*
X47325598Y-69896580D01*
X47316344Y-69902287D01*
X47192289Y-70026342D01*
X47100187Y-70175663D01*
X47100186Y-70175666D01*
X47045001Y-70342203D01*
X47045001Y-70342204D01*
X47045000Y-70342204D01*
X47034500Y-70444983D01*
X47034500Y-71795001D01*
X47034501Y-71795018D01*
X47045000Y-71897796D01*
X47045001Y-71897799D01*
X47091364Y-72037710D01*
X47100186Y-72064334D01*
X47192288Y-72213656D01*
X47316344Y-72337712D01*
X47465666Y-72429814D01*
X47632203Y-72484999D01*
X47734991Y-72495500D01*
X48635008Y-72495499D01*
X48635016Y-72495498D01*
X48635019Y-72495498D01*
X48691302Y-72489748D01*
X48737797Y-72484999D01*
X48904334Y-72429814D01*
X49053656Y-72337712D01*
X49177712Y-72213656D01*
X49269814Y-72064334D01*
X49289311Y-72005493D01*
X49329084Y-71948051D01*
X49393600Y-71921228D01*
X49407017Y-71920500D01*
X52712770Y-71920500D01*
X52779809Y-71940185D01*
X52800451Y-71956819D01*
X52881344Y-72037712D01*
X53030666Y-72129814D01*
X53197203Y-72184999D01*
X53299991Y-72195500D01*
X54650008Y-72195499D01*
X54752797Y-72184999D01*
X54919334Y-72129814D01*
X55068656Y-72037712D01*
X55192712Y-71913656D01*
X55284814Y-71764334D01*
X55339999Y-71597797D01*
X55350500Y-71495009D01*
X55350499Y-70594992D01*
X55339999Y-70492203D01*
X55284814Y-70325666D01*
X55192712Y-70176344D01*
X55068656Y-70052288D01*
X54919334Y-69960186D01*
X54752797Y-69905001D01*
X54752795Y-69905000D01*
X54650010Y-69894500D01*
X53299998Y-69894500D01*
X53299981Y-69894501D01*
X53197203Y-69905000D01*
X53197200Y-69905001D01*
X53030668Y-69960185D01*
X53030663Y-69960187D01*
X52881342Y-70052289D01*
X52757289Y-70176342D01*
X52757288Y-70176344D01*
X52708673Y-70255163D01*
X52705321Y-70260597D01*
X52653373Y-70307321D01*
X52599782Y-70319500D01*
X49407017Y-70319500D01*
X49339978Y-70299815D01*
X49294223Y-70247011D01*
X49289311Y-70234505D01*
X49269814Y-70175666D01*
X49177712Y-70026344D01*
X49053656Y-69902288D01*
X49053655Y-69902287D01*
X49044402Y-69896580D01*
X48997678Y-69844632D01*
X48985500Y-69791042D01*
X48985500Y-67106155D01*
X48985499Y-67106153D01*
X48954738Y-66951510D01*
X48954737Y-66951503D01*
X48921457Y-66871157D01*
X48894397Y-66805827D01*
X48894390Y-66805814D01*
X48806790Y-66674712D01*
X48806789Y-66674711D01*
X48695289Y-66563211D01*
X48426818Y-66294740D01*
X48393333Y-66233417D01*
X48390499Y-66207059D01*
X48390499Y-65527498D01*
X48390498Y-65527481D01*
X48379999Y-65424703D01*
X48379998Y-65424700D01*
X48363322Y-65374375D01*
X48324814Y-65258166D01*
X48232712Y-65108844D01*
X48108656Y-64984788D01*
X47959334Y-64892686D01*
X47792797Y-64837501D01*
X47792795Y-64837500D01*
X47690010Y-64827000D01*
X46289998Y-64827000D01*
X46289981Y-64827001D01*
X46187203Y-64837500D01*
X46187200Y-64837501D01*
X46020668Y-64892685D01*
X46020663Y-64892687D01*
X45871342Y-64984789D01*
X45747288Y-65108843D01*
X45747285Y-65108847D01*
X45733870Y-65130597D01*
X45681922Y-65177322D01*
X45628332Y-65189500D01*
X44541668Y-65189500D01*
X44474629Y-65169815D01*
X44436130Y-65130597D01*
X44422714Y-65108847D01*
X44422711Y-65108843D01*
X44298657Y-64984789D01*
X44298656Y-64984788D01*
X44149334Y-64892686D01*
X43982797Y-64837501D01*
X43982795Y-64837500D01*
X43880010Y-64827000D01*
X42479998Y-64827000D01*
X42479981Y-64827001D01*
X42377203Y-64837500D01*
X42377200Y-64837501D01*
X42210668Y-64892685D01*
X42210663Y-64892687D01*
X42061342Y-64984789D01*
X41937288Y-65108843D01*
X41937285Y-65108847D01*
X41923870Y-65130597D01*
X41871922Y-65177322D01*
X41818332Y-65189500D01*
X40731668Y-65189500D01*
X40664629Y-65169815D01*
X40626130Y-65130597D01*
X40612714Y-65108847D01*
X40612711Y-65108843D01*
X40488657Y-64984789D01*
X40488656Y-64984788D01*
X40339334Y-64892686D01*
X40172797Y-64837501D01*
X40172795Y-64837500D01*
X40070010Y-64827000D01*
X38669998Y-64827000D01*
X38669981Y-64827001D01*
X38567203Y-64837500D01*
X38567200Y-64837501D01*
X38400668Y-64892685D01*
X38400663Y-64892687D01*
X38251342Y-64984789D01*
X38127289Y-65108842D01*
X38035187Y-65258163D01*
X38035185Y-65258168D01*
X38028520Y-65278282D01*
X37980001Y-65424703D01*
X37980001Y-65424704D01*
X37980000Y-65424704D01*
X37969500Y-65527483D01*
X27385499Y-65527483D01*
X27385499Y-65374378D01*
X27385499Y-64507129D01*
X27385498Y-64507123D01*
X27379091Y-64447516D01*
X27328797Y-64312671D01*
X27328793Y-64312664D01*
X27278127Y-64244983D01*
X52599500Y-64244983D01*
X52599500Y-65145001D01*
X52599501Y-65145019D01*
X52610000Y-65247796D01*
X52610001Y-65247799D01*
X52665185Y-65414331D01*
X52665187Y-65414336D01*
X52671582Y-65424704D01*
X52757288Y-65563656D01*
X52881344Y-65687712D01*
X52954757Y-65732993D01*
X53030668Y-65779815D01*
X53051110Y-65786588D01*
X53089502Y-65799310D01*
X53146947Y-65839081D01*
X53173772Y-65903596D01*
X53174500Y-65917016D01*
X53174500Y-66722983D01*
X53154815Y-66790022D01*
X53102011Y-66835777D01*
X53089510Y-66840686D01*
X53063207Y-66849403D01*
X53030666Y-66860186D01*
X53030663Y-66860187D01*
X52881342Y-66952289D01*
X52757289Y-67076342D01*
X52665187Y-67225663D01*
X52665185Y-67225668D01*
X52652896Y-67262754D01*
X52610001Y-67392203D01*
X52610001Y-67392204D01*
X52610000Y-67392204D01*
X52599500Y-67494983D01*
X52599500Y-68395001D01*
X52599501Y-68395019D01*
X52610000Y-68497796D01*
X52610001Y-68497799D01*
X52656268Y-68637422D01*
X52665186Y-68664334D01*
X52757288Y-68813656D01*
X52881344Y-68937712D01*
X53030666Y-69029814D01*
X53197203Y-69084999D01*
X53299991Y-69095500D01*
X54650008Y-69095499D01*
X54752797Y-69084999D01*
X54919334Y-69029814D01*
X55068656Y-68937712D01*
X55192712Y-68813656D01*
X55284814Y-68664334D01*
X55339999Y-68497797D01*
X55350500Y-68395009D01*
X55350499Y-67494992D01*
X55339999Y-67392203D01*
X55284814Y-67225666D01*
X55192712Y-67076344D01*
X55068656Y-66952288D01*
X54937121Y-66871157D01*
X54919336Y-66860187D01*
X54919335Y-66860186D01*
X54919334Y-66860186D01*
X54860493Y-66840688D01*
X54803051Y-66800916D01*
X54776228Y-66736400D01*
X54775500Y-66722983D01*
X54775500Y-65917016D01*
X54795185Y-65849977D01*
X54847989Y-65804222D01*
X54860488Y-65799313D01*
X54919334Y-65779814D01*
X55068656Y-65687712D01*
X55192712Y-65563656D01*
X55284814Y-65414334D01*
X55339999Y-65247797D01*
X55350500Y-65145009D01*
X55350499Y-64244992D01*
X55349329Y-64233543D01*
X55339999Y-64142203D01*
X55339998Y-64142200D01*
X55284814Y-63975666D01*
X55192712Y-63826344D01*
X55068656Y-63702288D01*
X54919334Y-63610186D01*
X54752797Y-63555001D01*
X54752795Y-63555000D01*
X54650010Y-63544500D01*
X53299998Y-63544500D01*
X53299981Y-63544501D01*
X53197203Y-63555000D01*
X53197200Y-63555001D01*
X53030668Y-63610185D01*
X53030663Y-63610187D01*
X52881342Y-63702289D01*
X52757289Y-63826342D01*
X52665187Y-63975663D01*
X52665185Y-63975668D01*
X52647844Y-64028000D01*
X52610001Y-64142203D01*
X52610001Y-64142204D01*
X52610000Y-64142204D01*
X52599500Y-64244983D01*
X27278127Y-64244983D01*
X27242547Y-64197455D01*
X27242544Y-64197452D01*
X27127335Y-64111206D01*
X27127328Y-64111202D01*
X26995917Y-64062189D01*
X26939983Y-64020318D01*
X26915566Y-63954853D01*
X26930418Y-63886580D01*
X26951563Y-63858332D01*
X27065104Y-63744792D01*
X27079918Y-63724403D01*
X27190048Y-63572820D01*
X27190047Y-63572820D01*
X27190051Y-63572816D01*
X27286557Y-63383412D01*
X27352246Y-63181243D01*
X27385500Y-62971287D01*
X27385500Y-62758713D01*
X27352246Y-62548757D01*
X27304718Y-62402483D01*
X37969500Y-62402483D01*
X37969500Y-63327501D01*
X37969501Y-63327519D01*
X37980000Y-63430296D01*
X37980001Y-63430299D01*
X38035185Y-63596831D01*
X38035187Y-63596836D01*
X38043422Y-63610187D01*
X38127288Y-63746156D01*
X38251344Y-63870212D01*
X38400666Y-63962314D01*
X38567203Y-64017499D01*
X38669991Y-64028000D01*
X40070008Y-64027999D01*
X40172797Y-64017499D01*
X40339334Y-63962314D01*
X40488656Y-63870212D01*
X40612712Y-63746156D01*
X40618337Y-63737034D01*
X40626130Y-63724403D01*
X40678078Y-63677678D01*
X40731668Y-63665500D01*
X41818332Y-63665500D01*
X41885371Y-63685185D01*
X41923870Y-63724403D01*
X41937285Y-63746152D01*
X41937288Y-63746156D01*
X42061344Y-63870212D01*
X42210666Y-63962314D01*
X42377203Y-64017499D01*
X42479991Y-64028000D01*
X43880008Y-64027999D01*
X43982797Y-64017499D01*
X44149334Y-63962314D01*
X44298656Y-63870212D01*
X44422712Y-63746156D01*
X44428337Y-63737034D01*
X44436130Y-63724403D01*
X44488078Y-63677678D01*
X44541668Y-63665500D01*
X45628332Y-63665500D01*
X45695371Y-63685185D01*
X45733870Y-63724403D01*
X45747285Y-63746152D01*
X45747288Y-63746156D01*
X45871344Y-63870212D01*
X46020666Y-63962314D01*
X46187203Y-64017499D01*
X46289991Y-64028000D01*
X47690008Y-64027999D01*
X47792797Y-64017499D01*
X47959334Y-63962314D01*
X48108656Y-63870212D01*
X48232712Y-63746156D01*
X48324814Y-63596834D01*
X48379999Y-63430297D01*
X48390500Y-63327509D01*
X48390499Y-62402492D01*
X48379999Y-62299703D01*
X48324814Y-62133166D01*
X48232712Y-61983844D01*
X48108656Y-61859788D01*
X47959334Y-61767686D01*
X47875495Y-61739904D01*
X47818051Y-61700132D01*
X47791228Y-61635616D01*
X47790500Y-61622199D01*
X47790500Y-57894983D01*
X52599500Y-57894983D01*
X52599500Y-58795001D01*
X52599501Y-58795019D01*
X52610000Y-58897796D01*
X52610001Y-58897799D01*
X52646599Y-59008242D01*
X52665186Y-59064334D01*
X52757288Y-59213656D01*
X52881344Y-59337712D01*
X53030666Y-59429814D01*
X53030668Y-59429815D01*
X53051110Y-59436588D01*
X53089502Y-59449310D01*
X53146947Y-59489081D01*
X53173772Y-59553596D01*
X53174500Y-59567016D01*
X53174500Y-60372983D01*
X53154815Y-60440022D01*
X53102011Y-60485777D01*
X53089510Y-60490686D01*
X53030666Y-60510186D01*
X53030663Y-60510187D01*
X52881342Y-60602289D01*
X52757289Y-60726342D01*
X52665187Y-60875663D01*
X52665186Y-60875666D01*
X52610001Y-61042203D01*
X52610001Y-61042204D01*
X52610000Y-61042204D01*
X52599500Y-61144983D01*
X52599500Y-62045001D01*
X52599501Y-62045019D01*
X52610000Y-62147796D01*
X52610001Y-62147799D01*
X52657935Y-62292452D01*
X52665186Y-62314334D01*
X52757288Y-62463656D01*
X52881344Y-62587712D01*
X53030666Y-62679814D01*
X53197203Y-62734999D01*
X53299991Y-62745500D01*
X54650008Y-62745499D01*
X54752797Y-62734999D01*
X54919334Y-62679814D01*
X55068656Y-62587712D01*
X55192712Y-62463656D01*
X55284814Y-62314334D01*
X55339999Y-62147797D01*
X55350500Y-62045009D01*
X55350499Y-61144992D01*
X55339999Y-61042203D01*
X55284814Y-60875666D01*
X55192712Y-60726344D01*
X55068656Y-60602288D01*
X54954926Y-60532139D01*
X54919336Y-60510187D01*
X54919335Y-60510186D01*
X54919334Y-60510186D01*
X54860493Y-60490688D01*
X54803051Y-60450916D01*
X54776228Y-60386400D01*
X54775500Y-60372983D01*
X54775500Y-59567016D01*
X54795185Y-59499977D01*
X54847989Y-59454222D01*
X54860488Y-59449313D01*
X54919334Y-59429814D01*
X55068656Y-59337712D01*
X55192712Y-59213656D01*
X55284814Y-59064334D01*
X55339999Y-58897797D01*
X55350500Y-58795009D01*
X55350499Y-57894992D01*
X55339999Y-57792203D01*
X55284814Y-57625666D01*
X55192712Y-57476344D01*
X55068656Y-57352288D01*
X54919334Y-57260186D01*
X54752797Y-57205001D01*
X54752795Y-57205000D01*
X54650010Y-57194500D01*
X53299998Y-57194500D01*
X53299981Y-57194501D01*
X53197203Y-57205000D01*
X53197200Y-57205001D01*
X53030668Y-57260185D01*
X53030663Y-57260187D01*
X52881342Y-57352289D01*
X52757289Y-57476342D01*
X52665187Y-57625663D01*
X52665185Y-57625668D01*
X52654191Y-57658846D01*
X52610001Y-57792203D01*
X52610001Y-57792204D01*
X52610000Y-57792204D01*
X52599500Y-57894983D01*
X47790500Y-57894983D01*
X47790500Y-51544983D01*
X52599500Y-51544983D01*
X52599500Y-52445001D01*
X52599501Y-52445019D01*
X52610000Y-52547796D01*
X52610001Y-52547799D01*
X52665185Y-52714331D01*
X52665187Y-52714336D01*
X52691616Y-52757184D01*
X52757288Y-52863656D01*
X52881344Y-52987712D01*
X53030666Y-53079814D01*
X53030668Y-53079815D01*
X53051110Y-53086588D01*
X53089502Y-53099310D01*
X53146947Y-53139081D01*
X53173772Y-53203596D01*
X53174500Y-53217016D01*
X53174500Y-54022983D01*
X53154815Y-54090022D01*
X53102011Y-54135777D01*
X53089510Y-54140686D01*
X53049811Y-54153842D01*
X53030666Y-54160186D01*
X53030663Y-54160187D01*
X52881342Y-54252289D01*
X52757289Y-54376342D01*
X52665187Y-54525663D01*
X52665186Y-54525666D01*
X52610001Y-54692203D01*
X52610001Y-54692204D01*
X52610000Y-54692204D01*
X52599500Y-54794983D01*
X52599500Y-55695001D01*
X52599501Y-55695019D01*
X52610000Y-55797796D01*
X52610001Y-55797799D01*
X52657935Y-55942452D01*
X52665186Y-55964334D01*
X52757288Y-56113656D01*
X52881344Y-56237712D01*
X53030666Y-56329814D01*
X53197203Y-56384999D01*
X53299991Y-56395500D01*
X54650008Y-56395499D01*
X54752797Y-56384999D01*
X54919334Y-56329814D01*
X55068656Y-56237712D01*
X55192712Y-56113656D01*
X55284814Y-55964334D01*
X55339999Y-55797797D01*
X55350500Y-55695009D01*
X55350499Y-54794992D01*
X55339999Y-54692203D01*
X55284814Y-54525666D01*
X55192712Y-54376344D01*
X55068656Y-54252288D01*
X54919334Y-54160186D01*
X54860493Y-54140688D01*
X54803051Y-54100916D01*
X54776228Y-54036400D01*
X54775500Y-54022983D01*
X54775500Y-53217016D01*
X54795185Y-53149977D01*
X54847989Y-53104222D01*
X54860488Y-53099313D01*
X54919334Y-53079814D01*
X55068656Y-52987712D01*
X55192712Y-52863656D01*
X55284814Y-52714334D01*
X55339999Y-52547797D01*
X55350500Y-52445009D01*
X55350499Y-51544992D01*
X55342642Y-51468081D01*
X55339999Y-51442203D01*
X55339998Y-51442200D01*
X55284814Y-51275666D01*
X55192712Y-51126344D01*
X55068656Y-51002288D01*
X54919334Y-50910186D01*
X54752797Y-50855001D01*
X54752795Y-50855000D01*
X54650010Y-50844500D01*
X53299998Y-50844500D01*
X53299981Y-50844501D01*
X53197203Y-50855000D01*
X53197200Y-50855001D01*
X53030668Y-50910185D01*
X53030663Y-50910187D01*
X52881342Y-51002289D01*
X52757289Y-51126342D01*
X52665187Y-51275663D01*
X52665186Y-51275666D01*
X52610001Y-51442203D01*
X52610001Y-51442204D01*
X52610000Y-51442204D01*
X52599500Y-51544983D01*
X47790500Y-51544983D01*
X47790500Y-49912940D01*
X47810185Y-49845901D01*
X47826819Y-49825259D01*
X50805259Y-46846819D01*
X50866582Y-46813334D01*
X50892940Y-46810500D01*
X58155500Y-46810500D01*
X58222539Y-46830185D01*
X58268294Y-46882989D01*
X58279500Y-46934500D01*
X58279500Y-47205701D01*
X58282401Y-47242567D01*
X58282402Y-47242573D01*
X58328254Y-47400393D01*
X58328255Y-47400396D01*
X58411917Y-47541862D01*
X58416702Y-47548031D01*
X58414256Y-47549927D01*
X58440857Y-47598642D01*
X58435873Y-47668334D01*
X58415069Y-47700703D01*
X58416702Y-47701969D01*
X58411917Y-47708137D01*
X58328255Y-47849603D01*
X58328254Y-47849606D01*
X58282402Y-48007426D01*
X58282401Y-48007432D01*
X58279500Y-48044298D01*
X58279500Y-48475701D01*
X58282401Y-48512567D01*
X58282402Y-48512573D01*
X58299350Y-48570905D01*
X58299151Y-48640774D01*
X58261209Y-48699444D01*
X58197571Y-48728288D01*
X58180274Y-48729500D01*
X57532940Y-48729500D01*
X57465901Y-48709815D01*
X57445259Y-48693181D01*
X57025292Y-48273213D01*
X57025288Y-48273210D01*
X56894185Y-48185609D01*
X56894172Y-48185602D01*
X56748501Y-48125264D01*
X56748489Y-48125261D01*
X56593845Y-48094500D01*
X56593842Y-48094500D01*
X55303958Y-48094500D01*
X55236919Y-48074815D01*
X55198420Y-48035598D01*
X55192712Y-48026344D01*
X55068657Y-47902289D01*
X55068656Y-47902288D01*
X54919334Y-47810186D01*
X54752797Y-47755001D01*
X54752795Y-47755000D01*
X54650010Y-47744500D01*
X53299998Y-47744500D01*
X53299981Y-47744501D01*
X53197203Y-47755000D01*
X53197200Y-47755001D01*
X53030668Y-47810185D01*
X53030663Y-47810187D01*
X52881342Y-47902289D01*
X52757289Y-48026342D01*
X52665187Y-48175663D01*
X52665185Y-48175668D01*
X52645002Y-48236578D01*
X52610001Y-48342203D01*
X52610001Y-48342204D01*
X52610000Y-48342204D01*
X52599500Y-48444983D01*
X52599500Y-49345001D01*
X52599501Y-49345019D01*
X52610000Y-49447796D01*
X52610001Y-49447799D01*
X52655866Y-49586207D01*
X52665186Y-49614334D01*
X52757288Y-49763656D01*
X52881344Y-49887712D01*
X53030666Y-49979814D01*
X53197203Y-50034999D01*
X53299991Y-50045500D01*
X54650008Y-50045499D01*
X54752797Y-50034999D01*
X54919334Y-49979814D01*
X55068656Y-49887712D01*
X55192712Y-49763656D01*
X55198420Y-49754402D01*
X55250368Y-49707678D01*
X55303958Y-49695500D01*
X56132060Y-49695500D01*
X56161500Y-49704144D01*
X56191487Y-49710668D01*
X56196502Y-49714422D01*
X56199099Y-49715185D01*
X56219741Y-49731819D01*
X56313181Y-49825259D01*
X56346666Y-49886582D01*
X56349500Y-49912940D01*
X56349500Y-53761346D01*
X56380261Y-53915989D01*
X56380264Y-53916001D01*
X56440602Y-54061672D01*
X56440609Y-54061685D01*
X56528210Y-54192788D01*
X56528213Y-54192792D01*
X57618181Y-55282759D01*
X57651666Y-55344082D01*
X57654500Y-55370440D01*
X57654500Y-56050001D01*
X57654501Y-56050019D01*
X57665000Y-56152796D01*
X57665001Y-56152799D01*
X57697916Y-56252128D01*
X57720186Y-56319334D01*
X57812288Y-56468656D01*
X57936344Y-56592712D01*
X58085666Y-56684814D01*
X58252203Y-56739999D01*
X58354991Y-56750500D01*
X59755008Y-56750499D01*
X59857797Y-56739999D01*
X60024334Y-56684814D01*
X60173656Y-56592712D01*
X60297712Y-56468656D01*
X60303337Y-56459534D01*
X60311130Y-56446903D01*
X60363078Y-56400178D01*
X60416668Y-56388000D01*
X62138332Y-56388000D01*
X62205371Y-56407685D01*
X62243870Y-56446903D01*
X62257285Y-56468652D01*
X62257288Y-56468656D01*
X62381344Y-56592712D01*
X62530666Y-56684814D01*
X62697203Y-56739999D01*
X62799991Y-56750500D01*
X64200008Y-56750499D01*
X64302797Y-56739999D01*
X64469334Y-56684814D01*
X64618656Y-56592712D01*
X64742712Y-56468656D01*
X64748337Y-56459534D01*
X64756130Y-56446903D01*
X64808078Y-56400178D01*
X64861668Y-56388000D01*
X66583332Y-56388000D01*
X66650371Y-56407685D01*
X66688870Y-56446903D01*
X66702285Y-56468652D01*
X66702288Y-56468656D01*
X66826344Y-56592712D01*
X66975666Y-56684814D01*
X67142203Y-56739999D01*
X67244991Y-56750500D01*
X68645008Y-56750499D01*
X68747797Y-56739999D01*
X68914334Y-56684814D01*
X69063656Y-56592712D01*
X69187712Y-56468656D01*
X69279814Y-56319334D01*
X69334999Y-56152797D01*
X69345500Y-56050009D01*
X69345499Y-55124992D01*
X69334999Y-55022203D01*
X69279814Y-54855666D01*
X69187712Y-54706344D01*
X69063656Y-54582288D01*
X68914334Y-54490186D01*
X68747797Y-54435001D01*
X68747795Y-54435000D01*
X68645010Y-54424500D01*
X67244998Y-54424500D01*
X67244981Y-54424501D01*
X67142203Y-54435000D01*
X67142200Y-54435001D01*
X66975668Y-54490185D01*
X66975663Y-54490187D01*
X66826342Y-54582289D01*
X66702288Y-54706343D01*
X66702285Y-54706347D01*
X66688870Y-54728097D01*
X66636922Y-54774822D01*
X66583332Y-54787000D01*
X64861668Y-54787000D01*
X64794629Y-54767315D01*
X64756130Y-54728097D01*
X64742714Y-54706347D01*
X64742711Y-54706343D01*
X64618657Y-54582289D01*
X64618656Y-54582288D01*
X64469334Y-54490186D01*
X64302797Y-54435001D01*
X64302795Y-54435000D01*
X64200010Y-54424500D01*
X62799998Y-54424500D01*
X62799981Y-54424501D01*
X62697203Y-54435000D01*
X62697200Y-54435001D01*
X62530668Y-54490185D01*
X62530663Y-54490187D01*
X62381342Y-54582289D01*
X62257288Y-54706343D01*
X62257285Y-54706347D01*
X62243870Y-54728097D01*
X62191922Y-54774822D01*
X62138332Y-54787000D01*
X60416668Y-54787000D01*
X60349629Y-54767315D01*
X60311130Y-54728097D01*
X60297714Y-54706347D01*
X60297711Y-54706343D01*
X60173657Y-54582289D01*
X60173656Y-54582288D01*
X60024334Y-54490186D01*
X59857797Y-54435001D01*
X59857795Y-54435000D01*
X59755016Y-54424500D01*
X59755009Y-54424500D01*
X59075440Y-54424500D01*
X59008401Y-54404815D01*
X58987759Y-54388181D01*
X57986819Y-53387241D01*
X57953334Y-53325918D01*
X57950500Y-53299560D01*
X57950500Y-51050001D01*
X58282704Y-51050001D01*
X58282899Y-51052486D01*
X58328718Y-51210198D01*
X58412314Y-51351552D01*
X58412321Y-51351561D01*
X58528438Y-51467678D01*
X58528447Y-51467685D01*
X58669803Y-51551282D01*
X58669806Y-51551283D01*
X58827504Y-51597099D01*
X58827510Y-51597100D01*
X58864350Y-51599999D01*
X58864366Y-51600000D01*
X59505000Y-51600000D01*
X60005000Y-51600000D01*
X60645634Y-51600000D01*
X60645649Y-51599999D01*
X60682489Y-51597100D01*
X60682495Y-51597099D01*
X60840193Y-51551283D01*
X60840196Y-51551282D01*
X60981552Y-51467685D01*
X60981561Y-51467678D01*
X61097678Y-51351561D01*
X61097685Y-51351552D01*
X61181281Y-51210198D01*
X61227100Y-51052486D01*
X61227295Y-51050001D01*
X61227295Y-51050000D01*
X60005000Y-51050000D01*
X60005000Y-51600000D01*
X59505000Y-51600000D01*
X59505000Y-51050000D01*
X58282705Y-51050000D01*
X58282704Y-51050001D01*
X57950500Y-51050001D01*
X57950500Y-50454500D01*
X57970185Y-50387461D01*
X58022989Y-50341706D01*
X58074500Y-50330500D01*
X58180795Y-50330500D01*
X58247834Y-50350185D01*
X58293589Y-50402989D01*
X58303533Y-50472147D01*
X58299871Y-50489095D01*
X58282900Y-50547505D01*
X58282899Y-50547511D01*
X58282704Y-50549998D01*
X58282705Y-50550000D01*
X61227295Y-50550000D01*
X61227295Y-50549998D01*
X61227100Y-50547513D01*
X61181281Y-50389801D01*
X61097685Y-50248447D01*
X61092900Y-50242278D01*
X61095366Y-50240364D01*
X61068802Y-50191776D01*
X61073749Y-50122082D01*
X61094856Y-50089232D01*
X61093301Y-50088026D01*
X61098077Y-50081868D01*
X61098081Y-50081865D01*
X61181744Y-49940398D01*
X61227598Y-49782569D01*
X61230500Y-49745694D01*
X61230500Y-49314306D01*
X61227598Y-49277431D01*
X61181744Y-49119602D01*
X61098081Y-48978135D01*
X61098078Y-48978132D01*
X61093298Y-48971969D01*
X61095750Y-48970066D01*
X61069155Y-48921421D01*
X61074104Y-48851726D01*
X61094940Y-48819304D01*
X61093298Y-48818031D01*
X61098075Y-48811870D01*
X61098081Y-48811865D01*
X61181744Y-48670398D01*
X61227598Y-48512569D01*
X61230500Y-48475694D01*
X61230500Y-48044306D01*
X61227598Y-48007431D01*
X61181744Y-47849602D01*
X61098081Y-47708135D01*
X61098078Y-47708132D01*
X61093298Y-47701969D01*
X61095750Y-47700066D01*
X61069155Y-47651421D01*
X61074104Y-47581726D01*
X61094940Y-47549304D01*
X61093298Y-47548031D01*
X61098075Y-47541870D01*
X61098081Y-47541865D01*
X61181744Y-47400398D01*
X61226073Y-47247819D01*
X61227597Y-47242573D01*
X61227598Y-47242567D01*
X61230499Y-47205701D01*
X61230500Y-47205694D01*
X61230500Y-46774306D01*
X61227598Y-46737431D01*
X61212987Y-46687141D01*
X61181745Y-46579606D01*
X61181744Y-46579603D01*
X61181744Y-46579602D01*
X61098081Y-46438135D01*
X61098079Y-46438133D01*
X61098076Y-46438129D01*
X60981870Y-46321923D01*
X60981862Y-46321917D01*
X60840396Y-46238255D01*
X60840393Y-46238254D01*
X60682573Y-46192402D01*
X60682567Y-46192401D01*
X60645701Y-46189500D01*
X60645694Y-46189500D01*
X60137939Y-46189500D01*
X60070900Y-46169815D01*
X60050258Y-46153181D01*
X59611819Y-45714741D01*
X59578334Y-45653418D01*
X59575500Y-45627060D01*
X59575500Y-44514986D01*
X60140001Y-44514986D01*
X60150494Y-44617697D01*
X60205641Y-44784119D01*
X60205643Y-44784124D01*
X60297684Y-44933345D01*
X60421654Y-45057315D01*
X60570875Y-45149356D01*
X60570880Y-45149358D01*
X60737302Y-45204505D01*
X60737309Y-45204506D01*
X60840019Y-45214999D01*
X61052499Y-45214999D01*
X61552500Y-45214999D01*
X61764972Y-45214999D01*
X61764986Y-45214998D01*
X61867697Y-45204505D01*
X62034119Y-45149358D01*
X62034124Y-45149356D01*
X62183345Y-45057315D01*
X62307315Y-44933345D01*
X62399356Y-44784124D01*
X62399358Y-44784119D01*
X62454505Y-44617697D01*
X62454506Y-44617690D01*
X62464999Y-44514986D01*
X62465000Y-44514973D01*
X62465000Y-44065000D01*
X61552500Y-44065000D01*
X61552500Y-45214999D01*
X61052499Y-45214999D01*
X61052500Y-45214998D01*
X61052500Y-44065000D01*
X60140001Y-44065000D01*
X60140001Y-44514986D01*
X59575500Y-44514986D01*
X59575500Y-43115013D01*
X60140000Y-43115013D01*
X60140000Y-43565000D01*
X61052500Y-43565000D01*
X61552500Y-43565000D01*
X62464999Y-43565000D01*
X62464999Y-43115028D01*
X62464998Y-43115013D01*
X62454505Y-43012302D01*
X62399358Y-42845880D01*
X62399356Y-42845875D01*
X62307315Y-42696654D01*
X62183345Y-42572684D01*
X62034124Y-42480643D01*
X62034119Y-42480641D01*
X61867697Y-42425494D01*
X61867690Y-42425493D01*
X61764986Y-42415000D01*
X61552500Y-42415000D01*
X61552500Y-43565000D01*
X61052500Y-43565000D01*
X61052500Y-42415000D01*
X60840029Y-42415000D01*
X60840012Y-42415001D01*
X60737302Y-42425494D01*
X60570880Y-42480641D01*
X60570875Y-42480643D01*
X60421654Y-42572684D01*
X60297684Y-42696654D01*
X60205643Y-42845875D01*
X60205641Y-42845880D01*
X60150494Y-43012302D01*
X60150493Y-43012309D01*
X60140000Y-43115013D01*
X59575500Y-43115013D01*
X59575500Y-40698957D01*
X59595185Y-40631918D01*
X59634407Y-40593416D01*
X59643656Y-40587712D01*
X59767712Y-40463656D01*
X59859814Y-40314334D01*
X59914999Y-40147797D01*
X59925500Y-40045009D01*
X59925499Y-38694992D01*
X59925498Y-38694983D01*
X60724500Y-38694983D01*
X60724500Y-40045001D01*
X60724501Y-40045018D01*
X60735000Y-40147796D01*
X60735001Y-40147799D01*
X60776130Y-40271916D01*
X60790186Y-40314334D01*
X60882288Y-40463656D01*
X61006344Y-40587712D01*
X61155666Y-40679814D01*
X61322203Y-40734999D01*
X61424991Y-40745500D01*
X62325008Y-40745499D01*
X62325016Y-40745498D01*
X62325019Y-40745498D01*
X62381302Y-40739748D01*
X62427797Y-40734999D01*
X62594334Y-40679814D01*
X62743656Y-40587712D01*
X62867712Y-40463656D01*
X62959814Y-40314334D01*
X62979311Y-40255493D01*
X63019084Y-40198051D01*
X63083600Y-40171228D01*
X63097017Y-40170500D01*
X64462983Y-40170500D01*
X64530022Y-40190185D01*
X64575777Y-40242989D01*
X64580686Y-40255489D01*
X64600186Y-40314334D01*
X64692288Y-40463656D01*
X64816344Y-40587712D01*
X64965666Y-40679814D01*
X65132203Y-40734999D01*
X65234991Y-40745500D01*
X66135008Y-40745499D01*
X66135016Y-40745498D01*
X66135019Y-40745498D01*
X66191302Y-40739748D01*
X66237797Y-40734999D01*
X66404334Y-40679814D01*
X66553656Y-40587712D01*
X66677712Y-40463656D01*
X66769814Y-40314334D01*
X66824999Y-40147797D01*
X66835500Y-40045009D01*
X66835499Y-38694992D01*
X66835498Y-38694983D01*
X67634500Y-38694983D01*
X67634500Y-40045001D01*
X67634501Y-40045018D01*
X67645000Y-40147796D01*
X67645001Y-40147799D01*
X67686130Y-40271916D01*
X67700186Y-40314334D01*
X67792288Y-40463656D01*
X67916344Y-40587712D01*
X68065666Y-40679814D01*
X68232203Y-40734999D01*
X68334991Y-40745500D01*
X69235008Y-40745499D01*
X69235016Y-40745498D01*
X69235019Y-40745498D01*
X69291302Y-40739748D01*
X69337797Y-40734999D01*
X69504334Y-40679814D01*
X69653656Y-40587712D01*
X69777712Y-40463656D01*
X69869814Y-40314334D01*
X69889311Y-40255493D01*
X69929084Y-40198051D01*
X69993600Y-40171228D01*
X70007017Y-40170500D01*
X71522983Y-40170500D01*
X71590022Y-40190185D01*
X71635777Y-40242989D01*
X71640686Y-40255489D01*
X71660186Y-40314334D01*
X71752288Y-40463656D01*
X71876344Y-40587712D01*
X72025666Y-40679814D01*
X72192203Y-40734999D01*
X72294991Y-40745500D01*
X73195008Y-40745499D01*
X73195016Y-40745498D01*
X73195019Y-40745498D01*
X73251302Y-40739748D01*
X73297797Y-40734999D01*
X73464334Y-40679814D01*
X73613656Y-40587712D01*
X73737712Y-40463656D01*
X73829814Y-40314334D01*
X73884999Y-40147797D01*
X73895500Y-40045009D01*
X73895499Y-38694992D01*
X73895498Y-38694983D01*
X74694500Y-38694983D01*
X74694500Y-40045001D01*
X74694501Y-40045018D01*
X74705000Y-40147796D01*
X74705001Y-40147799D01*
X74746130Y-40271916D01*
X74760186Y-40314334D01*
X74852288Y-40463656D01*
X74976344Y-40587712D01*
X75125666Y-40679814D01*
X75292203Y-40734999D01*
X75394991Y-40745500D01*
X76295008Y-40745499D01*
X76295016Y-40745498D01*
X76295019Y-40745498D01*
X76351302Y-40739748D01*
X76397797Y-40734999D01*
X76564334Y-40679814D01*
X76713656Y-40587712D01*
X76837712Y-40463656D01*
X76929814Y-40314334D01*
X76949311Y-40255493D01*
X76989084Y-40198051D01*
X77053600Y-40171228D01*
X77067017Y-40170500D01*
X77872983Y-40170500D01*
X77940022Y-40190185D01*
X77985777Y-40242989D01*
X77990686Y-40255489D01*
X78010186Y-40314334D01*
X78102288Y-40463656D01*
X78226344Y-40587712D01*
X78375666Y-40679814D01*
X78542203Y-40734999D01*
X78644991Y-40745500D01*
X79545008Y-40745499D01*
X79545016Y-40745498D01*
X79545019Y-40745498D01*
X79601302Y-40739748D01*
X79647797Y-40734999D01*
X79814334Y-40679814D01*
X79963656Y-40587712D01*
X80087712Y-40463656D01*
X80179814Y-40314334D01*
X80234999Y-40147797D01*
X80245500Y-40045009D01*
X80245499Y-38694992D01*
X80234999Y-38592203D01*
X80179814Y-38425666D01*
X80087712Y-38276344D01*
X79963656Y-38152288D01*
X79814334Y-38060186D01*
X79647797Y-38005001D01*
X79647795Y-38005000D01*
X79545010Y-37994500D01*
X78644998Y-37994500D01*
X78644980Y-37994501D01*
X78542203Y-38005000D01*
X78542200Y-38005001D01*
X78375668Y-38060185D01*
X78375663Y-38060187D01*
X78226342Y-38152289D01*
X78102289Y-38276342D01*
X78010187Y-38425663D01*
X78010186Y-38425666D01*
X77990689Y-38484505D01*
X77950916Y-38541949D01*
X77886400Y-38568772D01*
X77872983Y-38569500D01*
X77067017Y-38569500D01*
X76999978Y-38549815D01*
X76954223Y-38497011D01*
X76949311Y-38484505D01*
X76929814Y-38425666D01*
X76837712Y-38276344D01*
X76713656Y-38152288D01*
X76564334Y-38060186D01*
X76397797Y-38005001D01*
X76397795Y-38005000D01*
X76295010Y-37994500D01*
X75394998Y-37994500D01*
X75394980Y-37994501D01*
X75292203Y-38005000D01*
X75292200Y-38005001D01*
X75125668Y-38060185D01*
X75125663Y-38060187D01*
X74976342Y-38152289D01*
X74852289Y-38276342D01*
X74760187Y-38425663D01*
X74760186Y-38425666D01*
X74705001Y-38592203D01*
X74705001Y-38592204D01*
X74705000Y-38592204D01*
X74694500Y-38694983D01*
X73895498Y-38694983D01*
X73884999Y-38592203D01*
X73829814Y-38425666D01*
X73737712Y-38276344D01*
X73613656Y-38152288D01*
X73464334Y-38060186D01*
X73297797Y-38005001D01*
X73297795Y-38005000D01*
X73195010Y-37994500D01*
X72294998Y-37994500D01*
X72294980Y-37994501D01*
X72192203Y-38005000D01*
X72192200Y-38005001D01*
X72025668Y-38060185D01*
X72025663Y-38060187D01*
X71876342Y-38152289D01*
X71752289Y-38276342D01*
X71660187Y-38425663D01*
X71660186Y-38425666D01*
X71640689Y-38484505D01*
X71600916Y-38541949D01*
X71536400Y-38568772D01*
X71522983Y-38569500D01*
X70007017Y-38569500D01*
X69939978Y-38549815D01*
X69894223Y-38497011D01*
X69889311Y-38484505D01*
X69869814Y-38425666D01*
X69777712Y-38276344D01*
X69653656Y-38152288D01*
X69504334Y-38060186D01*
X69337797Y-38005001D01*
X69337795Y-38005000D01*
X69235010Y-37994500D01*
X68334998Y-37994500D01*
X68334980Y-37994501D01*
X68232203Y-38005000D01*
X68232200Y-38005001D01*
X68065668Y-38060185D01*
X68065663Y-38060187D01*
X67916342Y-38152289D01*
X67792289Y-38276342D01*
X67700187Y-38425663D01*
X67700186Y-38425666D01*
X67645001Y-38592203D01*
X67645001Y-38592204D01*
X67645000Y-38592204D01*
X67634500Y-38694983D01*
X66835498Y-38694983D01*
X66824999Y-38592203D01*
X66769814Y-38425666D01*
X66677712Y-38276344D01*
X66553656Y-38152288D01*
X66404334Y-38060186D01*
X66237797Y-38005001D01*
X66237795Y-38005000D01*
X66135010Y-37994500D01*
X65234998Y-37994500D01*
X65234980Y-37994501D01*
X65132203Y-38005000D01*
X65132200Y-38005001D01*
X64965668Y-38060185D01*
X64965663Y-38060187D01*
X64816342Y-38152289D01*
X64692289Y-38276342D01*
X64600187Y-38425663D01*
X64600186Y-38425666D01*
X64580689Y-38484505D01*
X64540916Y-38541949D01*
X64476400Y-38568772D01*
X64462983Y-38569500D01*
X63097017Y-38569500D01*
X63029978Y-38549815D01*
X62984223Y-38497011D01*
X62979311Y-38484505D01*
X62959814Y-38425666D01*
X62867712Y-38276344D01*
X62743656Y-38152288D01*
X62594334Y-38060186D01*
X62427797Y-38005001D01*
X62427795Y-38005000D01*
X62325010Y-37994500D01*
X61424998Y-37994500D01*
X61424980Y-37994501D01*
X61322203Y-38005000D01*
X61322200Y-38005001D01*
X61155668Y-38060185D01*
X61155663Y-38060187D01*
X61006342Y-38152289D01*
X60882289Y-38276342D01*
X60790187Y-38425663D01*
X60790186Y-38425666D01*
X60735001Y-38592203D01*
X60735001Y-38592204D01*
X60735000Y-38592204D01*
X60724500Y-38694983D01*
X59925498Y-38694983D01*
X59914999Y-38592203D01*
X59859814Y-38425666D01*
X59767712Y-38276344D01*
X59643656Y-38152288D01*
X59494334Y-38060186D01*
X59327797Y-38005001D01*
X59327795Y-38005000D01*
X59225010Y-37994500D01*
X58324998Y-37994500D01*
X58324980Y-37994501D01*
X58222203Y-38005000D01*
X58222200Y-38005001D01*
X58055668Y-38060185D01*
X58055663Y-38060187D01*
X57906342Y-38152289D01*
X57782289Y-38276342D01*
X57690187Y-38425663D01*
X57690186Y-38425666D01*
X57635001Y-38592203D01*
X57635001Y-38592204D01*
X57635000Y-38592204D01*
X57624500Y-38694983D01*
X57624500Y-40045001D01*
X57624501Y-40045018D01*
X57635000Y-40147796D01*
X57635001Y-40147799D01*
X57676130Y-40271916D01*
X57690186Y-40314334D01*
X57782288Y-40463656D01*
X57906344Y-40587712D01*
X57915591Y-40593416D01*
X57962318Y-40645360D01*
X57974500Y-40698957D01*
X57974500Y-45085500D01*
X57954815Y-45152539D01*
X57902011Y-45198294D01*
X57850500Y-45209500D01*
X50431153Y-45209500D01*
X50276510Y-45240260D01*
X50276502Y-45240262D01*
X50130824Y-45300604D01*
X50130814Y-45300609D01*
X49999711Y-45388210D01*
X49999707Y-45388213D01*
X47352324Y-48035598D01*
X46479711Y-48908211D01*
X46449588Y-48938334D01*
X46368209Y-49019712D01*
X46280609Y-49150814D01*
X46280602Y-49150827D01*
X46220264Y-49296498D01*
X46220261Y-49296510D01*
X46189500Y-49451153D01*
X46189500Y-61622199D01*
X46169815Y-61689238D01*
X46117011Y-61734993D01*
X46104507Y-61739903D01*
X46091524Y-61744206D01*
X46020668Y-61767685D01*
X46020663Y-61767687D01*
X45871342Y-61859789D01*
X45747288Y-61983843D01*
X45747285Y-61983847D01*
X45733870Y-62005597D01*
X45681922Y-62052322D01*
X45628332Y-62064500D01*
X44541668Y-62064500D01*
X44474629Y-62044815D01*
X44436130Y-62005597D01*
X44422714Y-61983847D01*
X44422711Y-61983843D01*
X44298657Y-61859789D01*
X44298656Y-61859788D01*
X44149334Y-61767686D01*
X43982797Y-61712501D01*
X43982795Y-61712500D01*
X43880010Y-61702000D01*
X42479998Y-61702000D01*
X42479981Y-61702001D01*
X42377203Y-61712500D01*
X42377200Y-61712501D01*
X42210668Y-61767685D01*
X42210663Y-61767687D01*
X42061342Y-61859789D01*
X41937288Y-61983843D01*
X41937285Y-61983847D01*
X41923870Y-62005597D01*
X41871922Y-62052322D01*
X41818332Y-62064500D01*
X40731668Y-62064500D01*
X40664629Y-62044815D01*
X40626130Y-62005597D01*
X40612714Y-61983847D01*
X40612711Y-61983843D01*
X40488657Y-61859789D01*
X40488656Y-61859788D01*
X40339334Y-61767686D01*
X40255495Y-61739904D01*
X40198051Y-61700132D01*
X40171228Y-61635616D01*
X40170500Y-61622199D01*
X40170500Y-58622351D01*
X40190185Y-58555312D01*
X40242989Y-58509557D01*
X40281247Y-58499061D01*
X40327483Y-58494091D01*
X40462331Y-58443796D01*
X40577546Y-58357546D01*
X40663796Y-58242331D01*
X40714091Y-58107483D01*
X40720500Y-58047873D01*
X40720499Y-56252128D01*
X40714091Y-56192517D01*
X40699276Y-56152797D01*
X40663797Y-56057671D01*
X40663793Y-56057664D01*
X40577547Y-55942455D01*
X40577544Y-55942452D01*
X40462335Y-55856206D01*
X40462328Y-55856202D01*
X40327482Y-55805908D01*
X40327483Y-55805908D01*
X40267883Y-55799501D01*
X40267881Y-55799500D01*
X40267873Y-55799500D01*
X40267864Y-55799500D01*
X38472129Y-55799500D01*
X38472123Y-55799501D01*
X38412516Y-55805908D01*
X38277671Y-55856202D01*
X38277664Y-55856206D01*
X38162455Y-55942452D01*
X38162452Y-55942455D01*
X38076206Y-56057664D01*
X38076202Y-56057671D01*
X38025908Y-56192517D01*
X38019501Y-56252116D01*
X38019501Y-56252123D01*
X38019500Y-56252135D01*
X38019500Y-58047870D01*
X38019501Y-58047876D01*
X38025908Y-58107483D01*
X38076202Y-58242328D01*
X38076206Y-58242335D01*
X38162452Y-58357544D01*
X38162455Y-58357547D01*
X38277664Y-58443793D01*
X38277671Y-58443797D01*
X38412516Y-58494091D01*
X38458757Y-58499063D01*
X38523307Y-58525801D01*
X38563155Y-58583194D01*
X38569500Y-58622352D01*
X38569500Y-61622199D01*
X38549815Y-61689238D01*
X38497011Y-61734993D01*
X38484507Y-61739903D01*
X38471524Y-61744206D01*
X38400668Y-61767685D01*
X38400663Y-61767687D01*
X38251342Y-61859789D01*
X38127289Y-61983842D01*
X38035187Y-62133163D01*
X38035185Y-62133168D01*
X38027229Y-62157179D01*
X37980001Y-62299703D01*
X37980001Y-62299704D01*
X37980000Y-62299704D01*
X37969500Y-62402483D01*
X27304718Y-62402483D01*
X27286557Y-62346588D01*
X27190051Y-62157184D01*
X27190049Y-62157181D01*
X27190048Y-62157179D01*
X27065109Y-61985213D01*
X26914786Y-61834890D01*
X26742817Y-61709949D01*
X26733504Y-61705204D01*
X26682707Y-61657230D01*
X26665912Y-61589409D01*
X26688449Y-61523274D01*
X26733507Y-61484232D01*
X26742555Y-61479622D01*
X26796716Y-61440270D01*
X26796717Y-61440270D01*
X26164408Y-60807962D01*
X26227993Y-60790925D01*
X26342007Y-60725099D01*
X26435099Y-60632007D01*
X26500925Y-60517993D01*
X26517962Y-60454409D01*
X27150270Y-61086717D01*
X27150270Y-61086716D01*
X27189622Y-61032554D01*
X27286095Y-60843217D01*
X27351757Y-60641130D01*
X27351757Y-60641127D01*
X27385000Y-60431246D01*
X27385000Y-60218753D01*
X27351757Y-60008872D01*
X27351757Y-60008869D01*
X27286095Y-59806782D01*
X27189624Y-59617449D01*
X27150270Y-59563282D01*
X27150269Y-59563282D01*
X26517962Y-60195590D01*
X26500925Y-60132007D01*
X26435099Y-60017993D01*
X26342007Y-59924901D01*
X26227993Y-59859075D01*
X26164409Y-59842037D01*
X26796716Y-59209728D01*
X26742550Y-59170375D01*
X26553217Y-59073904D01*
X26351129Y-59008242D01*
X26141246Y-58975000D01*
X25928754Y-58975000D01*
X25718872Y-59008242D01*
X25718869Y-59008242D01*
X25516782Y-59073904D01*
X25327439Y-59170380D01*
X25273282Y-59209727D01*
X25273282Y-59209728D01*
X25905591Y-59842037D01*
X25842007Y-59859075D01*
X25727993Y-59924901D01*
X25634901Y-60017993D01*
X25569075Y-60132007D01*
X25552037Y-60195591D01*
X24919728Y-59563282D01*
X24919727Y-59563282D01*
X24880380Y-59617439D01*
X24783904Y-59806782D01*
X24718242Y-60008869D01*
X24718242Y-60008872D01*
X24685000Y-60218753D01*
X24685000Y-60431246D01*
X24718242Y-60641127D01*
X24718242Y-60641130D01*
X24783904Y-60843217D01*
X24880375Y-61032550D01*
X24919728Y-61086716D01*
X25552037Y-60454408D01*
X25569075Y-60517993D01*
X25634901Y-60632007D01*
X25727993Y-60725099D01*
X25842007Y-60790925D01*
X25905590Y-60807962D01*
X25273282Y-61440269D01*
X25273282Y-61440270D01*
X25327452Y-61479626D01*
X25327451Y-61479626D01*
X25336495Y-61484234D01*
X25387292Y-61532208D01*
X25404087Y-61600029D01*
X25381550Y-61666164D01*
X25336499Y-61705202D01*
X25327182Y-61709949D01*
X25151266Y-61837759D01*
X25150635Y-61836891D01*
X25091581Y-61863359D01*
X25074800Y-61864500D01*
X24734375Y-61864500D01*
X24541090Y-61902947D01*
X24541082Y-61902949D01*
X24494967Y-61922051D01*
X24494966Y-61922051D01*
X24359009Y-61978365D01*
X24359002Y-61978369D01*
X24334861Y-61994500D01*
X24195141Y-62087857D01*
X24195133Y-62087863D01*
X22228498Y-64054500D01*
X21587220Y-64695778D01*
X21587218Y-64695780D01*
X21517538Y-64765459D01*
X21447859Y-64835138D01*
X21338371Y-64998998D01*
X21338364Y-64999011D01*
X21262950Y-65181079D01*
X21262947Y-65181089D01*
X21224500Y-65374375D01*
X21224500Y-65374378D01*
X21224500Y-78641459D01*
X21224500Y-83918541D01*
X21224500Y-83918543D01*
X21224499Y-83918543D01*
X21262947Y-84111829D01*
X21262950Y-84111839D01*
X21338364Y-84293907D01*
X21338371Y-84293920D01*
X21447860Y-84457781D01*
X21447863Y-84457785D01*
X21591537Y-84601459D01*
X21591559Y-84601479D01*
X34147858Y-97157778D01*
X34147861Y-97157782D01*
X34183817Y-97193738D01*
X34222898Y-97232820D01*
X34256383Y-97294143D01*
X34253711Y-97331481D01*
X34251398Y-97363834D01*
X34245277Y-97372011D01*
X34209525Y-97419768D01*
X34183884Y-97429331D01*
X34144062Y-97444184D01*
X34135216Y-97444500D01*
X18124500Y-97444500D01*
X18057461Y-97424815D01*
X18011706Y-97372011D01*
X18000500Y-97320500D01*
X18000500Y-37569500D01*
X18020185Y-37502461D01*
X18072989Y-37456706D01*
X18124500Y-37445500D01*
X104875500Y-37445500D01*
X104942539Y-37465185D01*
G37*
%TD.AperFunction*%
%TA.AperFunction,Conductor*%
G36*
X98710203Y-65835569D02*
G01*
X98716681Y-65841601D01*
X101198181Y-68323101D01*
X101231666Y-68384424D01*
X101234500Y-68410782D01*
X101234500Y-82084217D01*
X101214815Y-82151256D01*
X101198181Y-82171898D01*
X96141899Y-87228181D01*
X96080576Y-87261666D01*
X96054218Y-87264500D01*
X74125783Y-87264500D01*
X74058744Y-87244815D01*
X74038102Y-87228181D01*
X69999209Y-83189289D01*
X69999206Y-83189285D01*
X69999206Y-83189286D01*
X69992139Y-83182219D01*
X69992139Y-83182218D01*
X69852782Y-83042861D01*
X69852781Y-83042860D01*
X69852780Y-83042859D01*
X69688920Y-82933371D01*
X69688907Y-82933364D01*
X69560176Y-82880042D01*
X69560167Y-82880039D01*
X69552952Y-82877051D01*
X69506836Y-82857949D01*
X69410188Y-82838724D01*
X69388205Y-82834351D01*
X69368861Y-82830503D01*
X69306951Y-82798116D01*
X69287517Y-82773983D01*
X69242714Y-82701347D01*
X69242711Y-82701343D01*
X69118657Y-82577289D01*
X69118656Y-82577288D01*
X68969334Y-82485186D01*
X68802797Y-82430001D01*
X68802795Y-82430000D01*
X68700010Y-82419500D01*
X67774998Y-82419500D01*
X67774980Y-82419501D01*
X67672203Y-82430000D01*
X67672200Y-82430001D01*
X67505668Y-82485185D01*
X67505663Y-82485187D01*
X67356342Y-82577289D01*
X67232289Y-82701342D01*
X67140187Y-82850663D01*
X67140185Y-82850668D01*
X67131443Y-82877051D01*
X67085001Y-83017203D01*
X67085001Y-83017204D01*
X67085000Y-83017204D01*
X67074500Y-83119983D01*
X67074500Y-84520001D01*
X67074501Y-84520018D01*
X67085000Y-84622796D01*
X67085001Y-84622799D01*
X67113093Y-84707573D01*
X67140186Y-84789334D01*
X67232288Y-84938656D01*
X67356344Y-85062712D01*
X67378094Y-85076127D01*
X67424820Y-85128073D01*
X67437000Y-85181667D01*
X67437000Y-86705500D01*
X67417315Y-86772539D01*
X67364511Y-86818294D01*
X67313000Y-86829500D01*
X66989298Y-86829500D01*
X66952432Y-86832401D01*
X66952426Y-86832402D01*
X66794606Y-86878254D01*
X66794603Y-86878255D01*
X66653137Y-86961917D01*
X66653129Y-86961923D01*
X66536923Y-87078129D01*
X66536917Y-87078137D01*
X66453255Y-87219603D01*
X66453254Y-87219606D01*
X66407402Y-87377426D01*
X66407401Y-87377432D01*
X66404500Y-87414298D01*
X66404500Y-87845701D01*
X66407401Y-87882567D01*
X66407402Y-87882573D01*
X66453254Y-88040393D01*
X66453255Y-88040396D01*
X66453256Y-88040398D01*
X66458524Y-88049306D01*
X66536917Y-88181862D01*
X66541702Y-88188031D01*
X66539256Y-88189927D01*
X66565857Y-88238642D01*
X66560873Y-88308334D01*
X66540069Y-88340703D01*
X66541702Y-88341969D01*
X66536917Y-88348137D01*
X66453255Y-88489603D01*
X66453254Y-88489606D01*
X66407402Y-88647426D01*
X66407401Y-88647432D01*
X66404500Y-88684298D01*
X66404500Y-89115701D01*
X66407401Y-89152567D01*
X66407402Y-89152573D01*
X66453254Y-89310393D01*
X66453255Y-89310396D01*
X66536917Y-89451862D01*
X66541702Y-89458031D01*
X66539256Y-89459927D01*
X66565857Y-89508642D01*
X66560873Y-89578334D01*
X66547017Y-89605038D01*
X66540511Y-89614542D01*
X66536919Y-89618135D01*
X66529715Y-89630316D01*
X66527386Y-89633719D01*
X66503381Y-89653329D01*
X66480717Y-89674489D01*
X66476553Y-89675246D01*
X66473277Y-89677923D01*
X66442478Y-89681442D01*
X66411974Y-89686989D01*
X66408061Y-89685374D01*
X66403859Y-89685855D01*
X66376045Y-89672164D01*
X66347387Y-89660339D01*
X66344675Y-89656722D01*
X66341172Y-89654998D01*
X66332129Y-89639986D01*
X66310499Y-89611135D01*
X66291632Y-89565584D01*
X66291630Y-89565581D01*
X66291628Y-89565577D01*
X66182139Y-89401716D01*
X66182136Y-89401712D01*
X66039686Y-89259262D01*
X66039655Y-89259233D01*
X64441819Y-87661397D01*
X64408334Y-87600074D01*
X64405500Y-87573716D01*
X64405500Y-87414313D01*
X64405499Y-87414298D01*
X64404798Y-87405396D01*
X64402598Y-87377431D01*
X64356744Y-87219602D01*
X64273081Y-87078135D01*
X64273079Y-87078133D01*
X64273076Y-87078129D01*
X64156870Y-86961923D01*
X64156862Y-86961917D01*
X64015396Y-86878255D01*
X64008235Y-86875156D01*
X64009265Y-86872775D01*
X63961000Y-86841936D01*
X63931809Y-86778456D01*
X63930500Y-86760488D01*
X63930500Y-85060523D01*
X63950185Y-84993484D01*
X64002989Y-84947729D01*
X64072147Y-84937785D01*
X64135703Y-84966810D01*
X64142181Y-84972842D01*
X64231654Y-85062315D01*
X64380875Y-85154356D01*
X64380880Y-85154358D01*
X64547302Y-85209505D01*
X64547309Y-85209506D01*
X64650019Y-85219999D01*
X64862499Y-85219999D01*
X65362500Y-85219999D01*
X65574972Y-85219999D01*
X65574986Y-85219998D01*
X65677697Y-85209505D01*
X65844119Y-85154358D01*
X65844124Y-85154356D01*
X65993345Y-85062315D01*
X66117315Y-84938345D01*
X66209356Y-84789124D01*
X66209358Y-84789119D01*
X66264505Y-84622697D01*
X66264506Y-84622690D01*
X66274999Y-84519986D01*
X66275000Y-84519973D01*
X66275000Y-84070000D01*
X65362500Y-84070000D01*
X65362500Y-85219999D01*
X64862499Y-85219999D01*
X64862500Y-85219998D01*
X64862500Y-83570000D01*
X65362500Y-83570000D01*
X66274999Y-83570000D01*
X66274999Y-83120028D01*
X66274998Y-83120013D01*
X66264505Y-83017302D01*
X66209358Y-82850880D01*
X66209356Y-82850875D01*
X66117315Y-82701654D01*
X65993345Y-82577684D01*
X65844124Y-82485643D01*
X65844119Y-82485641D01*
X65677697Y-82430494D01*
X65677690Y-82430493D01*
X65574986Y-82420000D01*
X65362500Y-82420000D01*
X65362500Y-83570000D01*
X64862500Y-83570000D01*
X64862500Y-82420000D01*
X64650029Y-82420000D01*
X64650012Y-82420001D01*
X64547302Y-82430494D01*
X64380880Y-82485641D01*
X64380875Y-82485643D01*
X64231654Y-82577684D01*
X64142181Y-82667158D01*
X64080858Y-82700643D01*
X64011166Y-82695659D01*
X63955233Y-82653787D01*
X63930816Y-82588323D01*
X63930500Y-82579477D01*
X63930500Y-81110782D01*
X63950185Y-81043743D01*
X63966819Y-81023101D01*
X67118102Y-77871819D01*
X67179425Y-77838334D01*
X67205783Y-77835500D01*
X94154838Y-77835500D01*
X94185862Y-77829328D01*
X94251484Y-77816275D01*
X94348132Y-77797051D01*
X94401461Y-77774961D01*
X94530210Y-77721632D01*
X94694078Y-77612139D01*
X94833435Y-77472782D01*
X94833435Y-77472780D01*
X94843643Y-77462573D01*
X94843644Y-77462570D01*
X99782139Y-72524078D01*
X99801235Y-72495499D01*
X99891632Y-72360210D01*
X99959857Y-72195499D01*
X99967051Y-72178132D01*
X100005500Y-71984837D01*
X100005500Y-71787756D01*
X100005500Y-70255163D01*
X100005500Y-70255160D01*
X100005499Y-70255158D01*
X99967053Y-70061879D01*
X99967052Y-70061878D01*
X99967051Y-70061869D01*
X99963083Y-70052292D01*
X99963083Y-70052289D01*
X99944961Y-70008538D01*
X99891635Y-69879796D01*
X99891628Y-69879783D01*
X99782140Y-69715923D01*
X99782139Y-69715922D01*
X99642782Y-69576565D01*
X99642781Y-69576564D01*
X98527508Y-68461292D01*
X98494024Y-68399970D01*
X98492717Y-68393009D01*
X98472246Y-68263756D01*
X98406555Y-68061583D01*
X98310048Y-67872179D01*
X98185109Y-67700213D01*
X98034786Y-67549890D01*
X97862817Y-67424949D01*
X97853504Y-67420204D01*
X97802707Y-67372230D01*
X97785912Y-67304409D01*
X97808449Y-67238274D01*
X97853507Y-67199232D01*
X97862555Y-67194622D01*
X97916716Y-67155270D01*
X97916717Y-67155270D01*
X97284408Y-66522962D01*
X97347993Y-66505925D01*
X97462007Y-66440099D01*
X97555099Y-66347007D01*
X97620925Y-66232993D01*
X97637962Y-66169408D01*
X98270270Y-66801717D01*
X98270270Y-66801716D01*
X98309622Y-66747554D01*
X98406095Y-66558217D01*
X98471757Y-66356130D01*
X98471757Y-66356127D01*
X98505000Y-66146246D01*
X98505000Y-65929282D01*
X98524685Y-65862243D01*
X98577489Y-65816488D01*
X98646647Y-65806544D01*
X98710203Y-65835569D01*
G37*
%TD.AperFunction*%
%TA.AperFunction,Conductor*%
G36*
X84925022Y-52255185D02*
G01*
X84970777Y-52307989D01*
X84975686Y-52320489D01*
X84995186Y-52379334D01*
X85087288Y-52528656D01*
X85211344Y-52652712D01*
X85360666Y-52744814D01*
X85527203Y-52799999D01*
X85629991Y-52810500D01*
X86530008Y-52810499D01*
X86530016Y-52810498D01*
X86530019Y-52810498D01*
X86592895Y-52804075D01*
X86632797Y-52799999D01*
X86766497Y-52755694D01*
X86836324Y-52753293D01*
X86896366Y-52789024D01*
X86927559Y-52851545D01*
X86929500Y-52873401D01*
X86929500Y-54153846D01*
X86960261Y-54308489D01*
X86960264Y-54308501D01*
X87020602Y-54454172D01*
X87020609Y-54454185D01*
X87108210Y-54585288D01*
X87108213Y-54585292D01*
X95768181Y-63245259D01*
X95801666Y-63306582D01*
X95804500Y-63332940D01*
X95804500Y-64397870D01*
X95804501Y-64397876D01*
X95810908Y-64457483D01*
X95861202Y-64592328D01*
X95861206Y-64592335D01*
X95947452Y-64707544D01*
X95947455Y-64707547D01*
X96062664Y-64793793D01*
X96062671Y-64793797D01*
X96107618Y-64810561D01*
X96197517Y-64844091D01*
X96257127Y-64850500D01*
X96267685Y-64850499D01*
X96334723Y-64870179D01*
X96355372Y-64886818D01*
X97025591Y-65557037D01*
X96962007Y-65574075D01*
X96847993Y-65639901D01*
X96754901Y-65732993D01*
X96689075Y-65847007D01*
X96672037Y-65910591D01*
X96039728Y-65278282D01*
X96039727Y-65278282D01*
X96000380Y-65332439D01*
X95903904Y-65521782D01*
X95838242Y-65723869D01*
X95838242Y-65723872D01*
X95805000Y-65933753D01*
X95805000Y-66146246D01*
X95838242Y-66356127D01*
X95838242Y-66356130D01*
X95903904Y-66558217D01*
X96000375Y-66747550D01*
X96039728Y-66801716D01*
X96672037Y-66169408D01*
X96689075Y-66232993D01*
X96754901Y-66347007D01*
X96847993Y-66440099D01*
X96962007Y-66505925D01*
X97025590Y-66522962D01*
X96393282Y-67155269D01*
X96393282Y-67155270D01*
X96447452Y-67194626D01*
X96447451Y-67194626D01*
X96456495Y-67199234D01*
X96507292Y-67247208D01*
X96524087Y-67315029D01*
X96501550Y-67381164D01*
X96456499Y-67420202D01*
X96447182Y-67424949D01*
X96275213Y-67549890D01*
X96124890Y-67700213D01*
X95999951Y-67872179D01*
X95903444Y-68061585D01*
X95837753Y-68263759D01*
X95820186Y-68374672D01*
X95790256Y-68437806D01*
X95730945Y-68474737D01*
X95661082Y-68473739D01*
X95610032Y-68442954D01*
X84451819Y-57284741D01*
X84418334Y-57223418D01*
X84415500Y-57197060D01*
X84415500Y-54023007D01*
X84415499Y-54023005D01*
X84394214Y-53916001D01*
X84384737Y-53868355D01*
X84384735Y-53868350D01*
X84324397Y-53722679D01*
X84324390Y-53722666D01*
X84236790Y-53591564D01*
X84236789Y-53591563D01*
X84125289Y-53480063D01*
X83667406Y-53022180D01*
X83633921Y-52960857D01*
X83638905Y-52891165D01*
X83680777Y-52835232D01*
X83746241Y-52810815D01*
X83755087Y-52810499D01*
X83915002Y-52810499D01*
X83915008Y-52810499D01*
X84017797Y-52799999D01*
X84184334Y-52744814D01*
X84333656Y-52652712D01*
X84457712Y-52528656D01*
X84549814Y-52379334D01*
X84569311Y-52320493D01*
X84583181Y-52300461D01*
X84593304Y-52278297D01*
X84602715Y-52272248D01*
X84609084Y-52263051D01*
X84631582Y-52253697D01*
X84652082Y-52240523D01*
X84669183Y-52238064D01*
X84673600Y-52236228D01*
X84687017Y-52235500D01*
X84857983Y-52235500D01*
X84925022Y-52255185D01*
G37*
%TD.AperFunction*%
%TD*%
M02*
